<?xml version="1.0" encoding="UTF-8"?>
<svg width="32px" height="32px" viewBox="0 0 32 32" version="1.1" xmlns="http://www.w3.org/2000/svg" xmlns:xlink="http://www.w3.org/1999/xlink">
    <!-- Generator: Sketch 54 (76480) - https://sketchapp.com -->
    <title>图例</title>
    <desc>Created with Sketch.</desc>
    <g id="军需图标" stroke="none" stroke-width="1" fill="none" fill-rule="evenodd">
        <g id="画板" transform="translate(-440.000000, -278.000000)">
            <g id="图例" transform="translate(440.000000, 278.000000)">
                <g transform="translate(3.000000, 3.000000)">
                    <path d="M1,0.5 C0.723857625,0.5 0.5,0.723857625 0.5,1 L0.5,25 C0.5,25.2761424 0.723857625,25.5 1,25.5 L25,25.5 C25.2761424,25.5 25.5,25.2761424 25.5,25 L25.5,1 C25.5,0.723857625 25.2761424,0.5 25,0.5 L1,0.5 Z" id="路径" stroke="#5D6D7E" fill="#FFFFFF" fill-rule="nonzero"></path>
                    <path d="M1,1 L1,25 L25,25 L25,1 L1,1 Z M1,0 L25,0 C25.5522847,-1.01453063e-16 26,0.44771525 26,1 L26,25 C26,25.5522847 25.5522847,26 25,26 L1,26 C0.44771525,26 6.76353751e-17,25.5522847 0,25 L0,1 C-6.76353751e-17,0.44771525 0.44771525,1.01453063e-16 1,0 Z" id="矩形" fill="#5D6D7E" fill-rule="nonzero"></path>
                    <rect id="矩形" fill="#5D6D7E" x="1" y="6" width="24" height="1"></rect>
                    <path d="M4,9 L7,9 L7,12 L4,12 L4,9 Z M14,9 L17,9 L17,12 L14,12 L14,9 Z M4,14 L7,14 L7,17 L4,17 L4,14 Z M14,14 L17,14 L17,17 L14,17 L14,14 Z M4,19 L7,19 L7,22 L4,22 L4,19 Z M14,19 L17,19 L17,22 L14,22 L14,19 Z" id="形状结合" fill="#C49F74"></path>
                    <path d="M8,10.5 L12,10.5 L11.5,10 L11.5,11 L12,10.5 L8,10.5 L8.5,11 L8.5,10 L8,10.5 Z M8,15.5 L12,15.5 L11.5,15 L11.5,16 L12,15.5 L8,15.5 L8.5,16 L8.5,15 L8,15.5 Z M8,20.5 L12,20.5 L11.5,20 L11.5,21 L12,20.5 L8,20.5 L8.5,21 L8.5,20 L8,20.5 Z M18,10.5 L22,10.5 L21.5,10 L21.5,11 L22,10.5 L18,10.5 L18.5,11 L18.5,10 L18,10.5 Z M18,15.5 L22,15.5 L21.5,15 L21.5,16 L22,15.5 L18,15.5 L18.5,16 L18.5,15 L18,15.5 Z M18,20.5 L22,20.5 L21.5,20 L21.5,21 L22,20.5 L18,20.5 L18.5,21 L18.5,20 L18,20.5 Z" id="形状结合" stroke="#979797" fill="#ACB4C0"></path>
                </g>
            </g>
        </g>
    </g>
</svg>