<?xml version="1.0" encoding="UTF-8"?>
<svg width="32px" height="32px" viewBox="0 0 32 32" version="1.1" xmlns="http://www.w3.org/2000/svg" xmlns:xlink="http://www.w3.org/1999/xlink">
    <!-- Generator: Sketch 54 (76480) - https://sketchapp.com -->
    <title>加载地图方案</title>
    <desc>Created with Sketch.</desc>
    <g id="军需图标" stroke="none" stroke-width="1" fill="none" fill-rule="evenodd">
        <g id="画板" transform="translate(-356.000000, -278.000000)">
            <g id="加载地图方案" transform="translate(356.000000, 278.000000)">
                <g transform="translate(3.000000, 2.000000)">
                    <g id="分组">
                        <path d="M25.5,26.5 L25.5,2.5 L5.4757062,2.5 L5.35787435,2.16662304 C5.00773556,1.17598928 4.06807452,0.5 3,0.5 C1.61928813,0.5 0.5,1.61928813 0.5,3 L0.5,24 C0.5,25.3807119 1.61928813,26.5 3,26.5 L25.5,26.5 Z" id="合并形状" stroke="#5D6D7E" fill="#FFFFFF"></path>
                        <path d="M14.4009315,27 C13.8508961,26.4898212 13.3775185,25.8981456 13,25.2441744 L13,17.7558256 C13.3775185,17.1018544 13.8508961,16.5101788 14.4009315,16 L24.5990685,16 C25.1491039,16.5101788 25.6224815,17.1018544 26,17.7558256 L26,25.2441744 C25.6224815,25.8981456 25.1491039,26.4898212 24.5990685,27 L14.4009315,27 Z" id="形状结合" fill="#FFFFFF"></path>
                        <g id="编组-20" transform="translate(5.000000, 5.315597)">
                            <path d="M0.5,0.684402939 C0.478068724,5.98606716 3.35307361,8.95462892 9.12501466,9.5900882 C17.7829262,10.5432771 16,12.1844029 17,12.1844029" id="路径-2" stroke="#D5D9DF"></path>
                            <path d="M11.3500977,9.89827013 C14.4201372,6.64517768 17.2959642,5.01863145 19.9775785,5.01863145" id="路径-35" stroke="#D5D9DF"></path>
                            <path d="M3,10.1156225 C3.27210261,8.48290604 4.11243447,7.72493721 5.52099559,7.84171601 C6.92955671,7.9584948 8.28393401,6.87987019 9.58412748,4.60584217 L6.7037835,4.60584217 L12.1553486,0.684402939 L14,6.26015257 L11.6356059,5.00263201 C10.7837697,7.89715467 9.64569009,9.344416 8.22136719,9.344416 C6.7970443,9.344416 5.81270966,10.7910783 5.26836329,13.6844029" id="路径-79" stroke="#808FA1" fill="#FFFFFF"></path>
                        </g>
                        <path d="M6,24 L5,24 C5,22.8954305 4.1045695,22 3,22 C1.8954305,22 1,22.8954305 1,24 L0,24 C0,22.3431458 1.34314575,21 3,21 C3.76835444,21 4.46924351,21.2888536 5,21.7638935 L5,2 L6,2 L6,24 Z" id="合并形状" fill="#5D6D7E" fill-rule="nonzero"></path>
                    </g>
                    <g id="分组-169" transform="translate(14.000000, 16.000000)" fill="#27A2DF" fill-rule="nonzero">
                        <polygon id="三角形" points="10.0084839 3.027771 12.5501099 6 7.62713623 6"></polygon>
                        <path d="M6,8.96455557 C6.52041389,8.8901162 7.0038975,8.70119502 7.42412144,8.42412144 L8.85700408,9.85700408 C8.05206882,10.4781113 7.07023582,10.8811344 6,10.9775785 L6,8.96455557 Z M8.17335265,7.75913909 C8.58739044,7.2696819 8.86943608,6.66499087 8.96455557,6 L10.9775785,6 C10.8679704,7.21631555 10.3623799,8.31844857 9.59070977,9.17649621 L8.17335265,7.75913909 Z M7.70417796,2.78110342 C7.22472146,2.39193482 6.64031458,2.12703425 6,2.03544443 L6,0.0224215077 C7.19130456,0.129775712 8.27307416,0.616994707 9.12325584,1.36202553 L7.70417796,2.78110342 Z M5,2.03544443 C4.33500913,2.13056392 3.7303181,2.41260956 3.24086091,2.82664735 L1.82350379,1.40929023 C2.68155143,0.637620098 3.78368445,0.132029573 5,0.0224215077 L5,2.03544443 Z M2.57587856,3.57587856 C2.29880498,3.9961025 2.1098838,4.47958611 2.03544443,5 L0.0224215077,5 C0.118865624,3.92976418 0.521888734,2.94793118 1.14299592,2.14299592 L2.57587856,3.57587856 Z M2.03544443,6 C2.12703425,6.64031458 2.39193482,7.22472146 2.78110342,7.70417796 L1.36202553,9.12325584 C0.616994707,8.27307416 0.129775712,7.19130456 0.0224215077,6 L2.03544443,6 Z M3.5158491,8.38364584 C3.94980622,8.68280817 4.4546241,8.88654566 5,8.96455557 L5,10.9775785 C3.90463784,10.8788701 2.90187816,10.4590184 2.08659624,9.81289869 L3.5158491,8.38364584 Z" id="合并形状"></path>
                    </g>
                </g>
            </g>
        </g>
    </g>
</svg>