<?xml version="1.0" encoding="UTF-8"?>
<svg width="32px" height="32px" viewBox="0 0 32 32" version="1.1" xmlns="http://www.w3.org/2000/svg" xmlns:xlink="http://www.w3.org/1999/xlink">
    <!-- Generator: Sketch 54 (76480) - https://sketchapp.com -->
    <title>添加图框方案</title>
    <desc>Created with Sketch.</desc>
    <g id="军需图标" stroke="none" stroke-width="1" fill="none" fill-rule="evenodd">
        <g id="画板" transform="translate(-482.000000, -320.000000)">
            <g id="添加图框方案" transform="translate(482.000000, 320.000000)">
                <g id="分组-92" transform="translate(3.000000, 3.000000)">
                    <rect id="矩形" stroke="#5D6D7E" fill="#FFFFFF" x="0.5" y="0.5" width="25" height="25" rx="1"></rect>
                    <path d="M10,2 L17,2 L17,3 L10,3 L10,2 Z M10,23 L17,23 L17,24 L10,24 L10,23 Z M2,10 L3,10 L3,17 L2,17 L2,10 Z M23,10 L24,10 L24,17 L23,17 L23,10 Z" id="合并形状" fill="#CDD1D7"></path>
                    <path d="M21,22 L5,22 L5,26 L4,26 L4,22 L0,22 L0,21 L4,21 L4,5 L0,5 L0,4 L4,4 L4,0 L5,0 L5,4 L21,4 L21,0 L22,0 L22,4 L26,4 L26,5 L22,5 L22,21 L26,21 L26,22 L22,22 L22,26 L21,26 L21,22 Z M21,21 L21,5 L5,5 L5,21 L21,21 Z" id="形状" fill="#808FA1"></path>
                </g>
            </g>
        </g>
    </g>
</svg>