<?xml version="1.0" encoding="UTF-8"?>
<svg width="32px" height="32px" viewBox="0 0 32 32" version="1.1" xmlns="http://www.w3.org/2000/svg" xmlns:xlink="http://www.w3.org/1999/xlink">
    <!-- Generator: Sketch 54 (76480) - https://sketchapp.com -->
    <title>兵要数据入库</title>
    <desc>Created with Sketch.</desc>
    <g id="军需图标" stroke="none" stroke-width="1" fill="none" fill-rule="evenodd">
        <g id="画板" transform="translate(-398.000000, -320.000000)">
            <g id="兵要数据入库" transform="translate(398.000000, 320.000000)">
                <g transform="translate(3.000000, 3.000000)">
                    <path d="M23.9925304,4.66027832 L24,4.66027832 L24,21.4949951 L23.8041356,21.4949951 C22.7824978,24.0575894 17.8861663,26 12,26 C6.11383366,26 1.21750218,24.0575894 0.195864419,21.4949951 L0,21.4949951 L0,4.66027832 L0.00746964867,4.66027832 C0.00250369102,4.60708186 0,4.55365057 0,4.5 C0,2.01471863 5.372583,0 12,0 C18.627417,0 24,2.01471863 24,4.5 C24,4.55365057 23.9974963,4.60708186 23.9925304,4.66027832 Z" id="形状结合" fill="#FFFFFF"></path>
                    <path d="M24,16 L23,16 L23,12.2919799 C20.6807399,13.9763868 16.5791306,15 12,15 C7.42086943,15 3.3192601,13.9763868 1,12.2919799 L1,16 C1,17.1108219 2.54961142,18.24088 5,19.0152072 L5,20.0616272 C3.26001162,19.5400862 1.86877658,18.8292265 1,18.0014252 L1,21.2766433 L1.13903519,21.5620344 C1.60217419,22.5126983 3.01397673,23.3870155 5,24.0160423 L5,25.0911006 C2.47423848,24.3694766 0.61991865,23.2724782 0,22 L0,21.5374038 L0,16 L0,10 L0,4.67785645 L0.00952171051,4.6809238 C0.00319379764,4.62091052 0,4.56059513 0,4.5 C0,2.01471863 5.372583,0 12,0 C18.627417,0 24,2.01471863 24,4.5 C24,4.56628328 23.9961784,4.63223184 23.9886135,4.69781639 L24,4.69433594 L24,10 L24,16 Z M23.0014952,11 L23,11 L23,6.30128272 C21.1474836,7.88991189 16.9194417,9 12,9 C7.08055825,9 2.85251643,7.88991189 1,6.30128272 L1,11 L0.998504845,11 C2.85024074,12.7659048 7.07923431,14 12,14 C16.9207657,14 21.1497593,12.7659048 23.0014952,11 Z M12,8 C18.1078598,8 23,6.16544742 23,4.5 C23,2.83455258 18.1078598,1 12,1 C5.89214022,1 1,2.83455258 1,4.5 C1,6.16544742 5.89214022,8 12,8 Z" id="形状结合" fill="#5D6D7E" fill-rule="nonzero"></path>
                    <rect id="矩形" fill="#27A2DF" x="6" y="17" width="20" height="9" rx="1"></rect>
                    <path d="M11.75,24 L11.75,18.2734375 L13.8984375,18.2734375 C14.3359397,18.2734375 14.6868476,18.3313796 14.9511719,18.4472656 C15.2154961,18.5631516 15.4225253,18.7415353 15.5722656,18.9824219 C15.722006,19.2233085 15.796875,19.4752591 15.796875,19.7382812 C15.796875,19.9830741 15.7304694,20.2135406 15.5976562,20.4296875 C15.4648431,20.6458344 15.2643243,20.8203118 14.9960938,20.953125 C15.3424496,21.054688 15.608723,21.2278634 15.7949219,21.4726562 C15.9811207,21.7174491 16.0742188,22.0065088 16.0742188,22.3398438 C16.0742188,22.6080743 16.0175787,22.8574207 15.9042969,23.0878906 C15.7910151,23.3183605 15.6510425,23.4960931 15.484375,23.6210938 C15.3177075,23.7460944 15.1087252,23.8404945 14.8574219,23.9042969 C14.6061185,23.9680993 14.2981789,24 13.9335938,24 L11.75,24 Z M12.5078125,20.6796875 L13.7460938,20.6796875 C14.0820329,20.6796875 14.3229159,20.6575523 14.46875,20.6132812 C14.6614593,20.5559893 14.8066401,20.4609382 14.9042969,20.328125 C15.0019536,20.1953118 15.0507812,20.0286468 15.0507812,19.828125 C15.0507812,19.6380199 15.0052088,19.4707038 14.9140625,19.3261719 C14.8229162,19.1816399 14.6927092,19.0826826 14.5234375,19.0292969 C14.3541658,18.9759112 14.0638041,18.9492188 13.6523438,18.9492188 L12.5078125,18.9492188 L12.5078125,20.6796875 Z M12.5078125,23.3242188 L13.9335938,23.3242188 C14.1783866,23.3242188 14.3502599,23.3151043 14.4492188,23.296875 C14.6236988,23.2656248 14.7695307,23.213542 14.8867188,23.140625 C15.0039068,23.067708 15.10026,22.9615892 15.1757812,22.8222656 C15.2513025,22.682942 15.2890625,22.5221363 15.2890625,22.3398438 C15.2890625,22.126301 15.2343755,21.940756 15.125,21.7832031 C15.0156245,21.6256503 14.8639333,21.5149743 14.6699219,21.4511719 C14.4759105,21.3873695 14.1966164,21.3554688 13.8320312,21.3554688 L12.5078125,21.3554688 L12.5078125,23.3242188 Z M18.7304688,24 L18.7304688,21.5742188 L16.5234375,18.2734375 L17.4453125,18.2734375 L18.5742188,20 C18.7825531,20.3229183 18.9765616,20.6458317 19.15625,20.96875 C19.3281259,20.6692693 19.5364571,20.3320331 19.78125,19.9570312 L20.890625,18.2734375 L21.7734375,18.2734375 L19.4882812,21.5742188 L19.4882812,24 L18.7304688,24 Z" id="BY" fill="#FFFFFF" fill-rule="nonzero"></path>
                </g>
            </g>
        </g>
    </g>
</svg>