<?xml version="1.0" encoding="UTF-8"?>
<svg width="32px" height="32px" viewBox="0 0 32 32" version="1.1" xmlns="http://www.w3.org/2000/svg" xmlns:xlink="http://www.w3.org/1999/xlink">
    <!-- Generator: Sketch 54 (76480) - https://sketchapp.com -->
    <title>CompactDatasource</title>
    <desc>Created with Sketch.</desc>
    <g id="1-开始" stroke="none" stroke-width="1" fill="none" fill-rule="evenodd">
        <g id="开始" transform="translate(-846.000000, -88.000000)">
            <g id="数据源_文件" transform="translate(694.000000, 88.000000)">
                <g id="紧缩数据源" transform="translate(152.000000, 0.000000)">
                    <g id="分组" transform="translate(4.000000, 3.000000)">
                        <path d="M17,25.5012946 L17,27 L14,27 L14,25.9239548 C13.3495831,25.9739678 12.6814244,26 12,26 C6.11383366,26 1.21750218,24.0575894 0.195864419,21.4949951 L0,21.4949951 L0,4.66027832 L0.00746964867,4.66027832 C0.00250369102,4.60708186 0,4.55365057 0,4.5 C0,2.01471863 5.372583,0 12,0 C18.627417,0 24,2.01471863 24,4.5 C24,4.55365057 23.9974963,4.60708186 23.9925304,4.66027832 L24,4.66027832 L24,21.4949951 L23.8041356,21.4949951 C23.0922137,23.280723 20.4987745,24.7652951 17,25.5012946 Z M22,24 L25,24 L25,27 L22,27 L22,24 Z" id="形状结合" fill="#FFFFFF"></path>
                        <path d="M24,12 L23,12 L23,11.0014253 C23.0004986,11.0009502 23.0009969,11.0004751 23.0014952,11 L23,11 L23,6.30128272 C21.1474836,7.88991189 16.9194417,9 12,9 C7.08055825,9 2.85251643,7.88991189 1,6.30128272 L1,11 L0.998504845,11 C2.72351696,12.6450549 6.51154445,13.8285984 11,13.9828859 L11,14.9836021 C6.82840893,14.8461879 3.14904195,13.8527626 1,12.2919799 L1,16 C1,17.8613144 5.35084258,19.776638 11,19.9818883 L11,20.9828859 C6.5128408,20.828643 2.72570511,19.6457384 1,18.0014252 L1,21.2766433 L1.13903519,21.5620344 C1.99130547,23.3114499 6.05608344,24.802329 11,24.981885 L11,25.9829655 C5.61953333,25.7992963 1.04750617,24.1501672 0,22 L0,21.5374038 L0,16 L0,10 L0,4.67785645 L0.00952171051,4.6809238 C0.00319379764,4.62091052 0,4.56059513 0,4.5 C0,2.01471863 5.372583,0 12,0 C18.627417,0 24,2.01471863 24,4.5 C24,4.56628328 23.9961784,4.63223184 23.9886135,4.69781639 L24,4.69433594 L24,10 L24,12 Z M12,8 C18.1078598,8 23,6.16544742 23,4.5 C23,2.83455258 18.1078598,1 12,1 C5.89214022,1 1,2.83455258 1,4.5 C1,6.16544742 5.89214022,8 12,8 Z" id="合并形状" fill="#5D6D7E" fill-rule="nonzero"></path>
                        <g id="分组-5" transform="translate(13.000000, 14.000000)">
                            <path d="M9.5,0.5 L2,0.5 L2.5,0 L2.5,1 L2,0.5 L8.5,0.5 L8.5,8.5 L2,8.5 L2.5,8 L2.5,9 L2,8.5 L6.5,8.5 L6.5,11.5 L6.25,11.5 L9.5,11.5 L9.5,12.5 L11.5,12.5 L11.5,10.5 L9.5,10.5 L9.5,11.5 L6.5,11.5 L6.5,8.5 L10,8.5 L9.5,9 L9.5,0.5 Z M6.25,11.5 L3.5,11.5 L3.5,10.5 L1.5,10.5 L1.5,12.5 L3.5,12.5 L3.5,11.5 L6.25,11.5 Z" id="合并形状" stroke="#3B97D3"></path>
                            <path d="M0.5,2.5 L0.5,3.5 L6.5,3.5 L6.5,2.5 L0.5,2.5 Z M0.5,5.5 L0.5,6.5 L6.5,6.5 L6.5,5.5 L0.5,5.5 Z" id="合并形状" stroke="#30AD98"></path>
                        </g>
                    </g>
                </g>
            </g>
        </g>
    </g>
</svg>