<?xml version="1.0" encoding="UTF-8"?>
<svg width="32px" height="32px" viewBox="0 0 32 32" version="1.1" xmlns="http://www.w3.org/2000/svg" xmlns:xlink="http://www.w3.org/1999/xlink">
    <!-- Generator: Sketch 54 (76480) - https://sketchapp.com -->
    <title>CoordSysTranslatorDataset</title>
    <desc>Created with Sketch.</desc>
    <g id="1-开始" stroke="none" stroke-width="1" fill="none" fill-rule="evenodd">
        <g id="开始" transform="translate(-48.000000, -544.000000)">
            <g id="投影转换" transform="translate(10.000000, 544.000000)">
                <g id="数据集投影转换" transform="translate(38.000000, 0.000000)">
                    <g id="分组" transform="translate(4.000000, 3.000000)">
                        <path d="M0.0732383704,4 C0.736497422,1.75002477 5.8232618,0 12,0 C18.1767382,0 23.2635026,1.75002477 23.9267616,4 L24,4 L24,21.6491699 L23.9267616,22 C23.2635026,24.2499752 18.1767382,26 12,26 C5.8232618,26 0.736497422,23.5799313 0.0732383704,21.3299561 L0,20.7302246 L0,4 L0.0732383704,4 Z" id="合并形状" fill="#FFFFFF" fill-rule="nonzero"></path>
                        <path d="M24,11.125 L22.6684622,11.2914422 C22.7867258,11.1960435 22.8978353,11.098855 23.0014952,11 L23,11 L23,6.30128272 C21.1474836,7.88991189 16.9194417,9 12,9 C7.08055825,9 2.85251643,7.88991189 1,6.30128272 L1,11 L0.998504845,11 C2.85024074,12.7659048 7.07923431,14 12,14 C13.099876,14 14.1651911,13.9383446 15.1771237,13.8228763 L14.0711054,14.9288946 C13.3951487,14.9758602 12.703205,15 12,15 C7.42086943,15 3.3192601,13.9763868 1,12.2919799 L1,16 C1,17.8613144 5.35084258,19.776638 11,19.9818883 L11,20.9828859 C6.5128408,20.828643 2.72570511,19.6457384 1,18.0014252 L1,21.2766433 L1.13903519,21.5620344 C2.04813396,23.4280991 6.61243682,25 12,25 C12.6186985,25 13.22654,24.97927 13.8192356,24.9397452 L14,25 L15.9769168,25.7188788 C14.7323298,25.9009718 13.3939201,26 12,26 C6.19450102,26 1.35189228,24.2822403 0.240043477,22 L0,21.5136719 L0,16 L0,10 L0,4.61071777 L0.00365325248,4.61213992 C0.00122246187,4.57487055 0,4.53748881 0,4.5 C0,2.01471863 5.372583,0 12,0 C18.627417,0 24,2.01471863 24,4.5 C24,4.50722786 23.9999546,4.51445175 23.9998638,4.52167161 L24,10 L24,11.125 Z M12,8 C18.1078598,8 23,6.16544742 23,4.5 C23,2.83455258 18.1078598,1 12,1 C5.89214022,1 1,2.83455258 1,4.5 C1,6.16544742 5.89214022,8 12,8 Z" id="合并形状" fill="#5D6D7E" fill-rule="nonzero"></path>
                        <path d="M21.6721569,20 L20.4956863,18.7628137 L21.8627451,17.326028 L18.5364706,17.326028 L17.1458824,19.0283964 L16,17.8233769 L17.7513725,15.6764463 L21.8627451,15.6764463 L20.4956863,14.2388359 L21.6721569,13 L25,16.5004124 L21.6721569,20 Z M14.2694732,23 L12,23 L12,21.4538075 L12.7569952,21.4538075 L13.5124779,21.4538075 L13.8951349,21 L15,22.1294936 L14.2694732,23 Z" id="合并形状" fill="#3B97D3"></path>
                        <polygon id="路径" fill="#30AD98" points="21.8010787 27 20.670185 25.8978842 21.9842835 24.6171064 18.032187 24.6171064 13.5078583 19.4704681 12 19.4704681 12 18 14.2625413 18 18.78687 23.1459031 21.9842835 23.1459031 20.670185 21.8651254 21.8010787 20.7630096 25 23.8804019"></polygon>
                    </g>
                </g>
            </g>
        </g>
    </g>
</svg>