<?xml version="1.0" encoding="UTF-8"?>
<svg width="32px" height="32px" viewBox="0 0 32 32" version="1.1" xmlns="http://www.w3.org/2000/svg" xmlns:xlink="http://www.w3.org/1999/xlink">
    <!-- Generator: Sketch 54 (76480) - https://sketchapp.com -->
    <title>非GJB数据入库</title>
    <desc>Created with Sketch.</desc>
    <g id="军需图标" stroke="none" stroke-width="1" fill="none" fill-rule="evenodd">
        <g id="画板" transform="translate(-20.000000, -320.000000)">
            <g id="非GJB数据入库" transform="translate(20.000000, 320.000000)">
                <g id="输出图片" transform="translate(3.000000, 3.000000)">
                    <rect id="矩形" fill="#FFFFFF" x="1" y="0" width="22" height="24" rx="1"></rect>
                    <path d="M13,23 L13,24 L2,24 C1.44771525,24 1,23.5522847 1,23 L1,1 C1,0.44771525 1.44771525,0 2,0 L22,0 C22.5522847,0 23,0.44771525 23,1 L23,11 L22,11 L22,1 L2,1 L2,23 L13,23 Z" id="合并形状" fill="#5D6D7E" fill-rule="nonzero"></path>
                    <rect id="矩形" fill="#27A2DF" x="0" y="3" width="21" height="8" rx="1"></rect>
                    <text id=".udb" font-family="ArialMT, Arial" font-size="8" font-weight="normal" fill="#FFFFFF">
                        <tspan x="1.44335938" y="10">.UDB</tspan>
                    </text>
                    <g id="分组-149" transform="translate(1.000000, 13.000000)" fill-rule="nonzero" stroke="#27A2DF">
                        <polyline id="路径-134" points="5.89746094 0.815429688 9.02880859 4.00195312 5.89746094 7.01025391"></polyline>
                        <path d="M8.02880859,3.9128418 L0.5,3.9128418" id="直线-109" stroke-linecap="square"></path>
                    </g>
                    <g id="编组-33" transform="translate(14.000000, 13.000000)">
                        <path d="M1,4.57273968 C0.368152703,4.349405 0,4.01114073 0,3.5 C0,2.11928813 2.6862915,0 6,0 C9.3137085,0 12,2.11928813 12,3.5 C12,4.01114073 11.6318473,4.349405 11,4.57273968 L11,8.11758537 C11.6318473,8.51354632 12,8.98885927 12,9.5 C12,10.8807119 9.3137085,12 6,12 C2.6862915,12 0,10.8807119 0,9.5 C0,8.98885927 0.368152703,8.51354632 1,8.11758537 L1,4.57273968 Z" id="形状结合" fill="#FFFFFF"></path>
                        <path d="M6,6 C8.90105938,6 11.1428571,4.69228464 11.1428571,3.5 C11.1428571,2.30771536 8.90105938,1 6,1 C3.09894062,1 0.857142857,2.30771536 0.857142857,3.5 C0.857142857,4.69228464 3.09894062,6 6,6 Z M6,7 C2.6862915,7 -8.8817842e-16,5.43299662 -8.8817842e-16,3.5 C-8.8817842e-16,1.56700338 2.6862915,1.77635684e-15 6,1.77635684e-15 C9.3137085,1.77635684e-15 12,1.56700338 12,3.5 C12,5.43299662 9.3137085,7 6,7 Z M11.1428571,9.50749655 L11.4280092,8.00943359 C11.7948528,8.46211466 12,8.96806269 12,9.50194544 C12,11.4338676 9.3137085,13 6,13 C2.6862915,13 -8.8817842e-16,11.4338676 -8.8817842e-16,9.50194544 C-8.8817842e-16,8.96435106 0.208009569,8.45508115 0.579665274,8 L0.857142857,9.43392907 L0.859557143,9.43394634 C0.857951231,9.45664781 0.857142857,9.47931743 0.857142857,9.50194544 C0.857142857,10.6935674 3.09894062,12.0005558 6,12.0005558 C8.89655534,12.0005558 11.1358945,10.6976225 11.1428409,9.50749643 Z M11,8.5421365 C9.92507846,9.42086185 8.08697075,10 6,10 C3.91302925,10 2.07492154,9.42086185 1,8.5421365 L1,10 L-8.8817842e-16,9.42175374 L-8.8817842e-16,3.62524414 L1,4.30649832 L1,7.23602574 C1.53682599,8.18446694 3.52933317,9.06823129 6,9.06823129 C8.47066683,9.06823129 10.463174,8.18446694 11,7.23602574 L11,4.36028456 L12,3.65429687 L12,9.42824906 L11,10 L11,8.5421365 Z" id="合并形状" fill="#5D6D7E" fill-rule="nonzero"></path>
                    </g>
                </g>
            </g>
        </g>
    </g>
</svg>