<?xml version="1.0" encoding="UTF-8"?>
<svg width="32px" height="32px" viewBox="0 0 32 32" version="1.1" xmlns="http://www.w3.org/2000/svg" xmlns:xlink="http://www.w3.org/1999/xlink">
    <!-- Generator: Sketch 54 (76480) - https://sketchapp.com -->
    <title>dm+</title>
    <desc>Created with Sketch.</desc>
    <g id="军需图标" stroke="none" stroke-width="1" fill="none" fill-rule="evenodd">
        <g id="画板" transform="translate(-440.000000, -320.000000)">
            <g id="兵要数据入库" transform="translate(440.000000, 320.000000)">
                <g transform="translate(3.000000, 3.000000)">
                    <path d="M23.9925304,4.66027832 L24,4.66027832 L24,21.4949951 L23.8041356,21.4949951 C22.7824978,24.0575894 17.8861663,26 12,26 C6.11383366,26 1.21750218,24.0575894 0.195864419,21.4949951 L0,21.4949951 L0,4.66027832 L0.00746964867,4.66027832 C0.00250369102,4.60708186 0,4.55365057 0,4.5 C0,2.01471863 5.372583,0 12,0 C18.627417,0 24,2.01471863 24,4.5 C24,4.55365057 23.9974963,4.60708186 23.9925304,4.66027832 Z" id="形状结合" fill="#FFFFFF"></path>
                    <path d="M24,16 L23,16 L23,12.2919799 C20.6807399,13.9763868 16.5791306,15 12,15 C7.42086943,15 3.3192601,13.9763868 1,12.2919799 L1,16 C1,17.1108219 2.54961142,18.24088 5,19.0152072 L5,20.0616272 C3.26001162,19.5400862 1.86877658,18.8292265 1,18.0014252 L1,21.2766433 L1.13903519,21.5620344 C1.60217419,22.5126983 3.01397673,23.3870155 5,24.0160423 L5,25.0911006 C2.47423848,24.3694766 0.61991865,23.2724782 0,22 L0,21.5374038 L0,16 L0,10 L0,4.67785645 L0.00952171051,4.6809238 C0.00319379764,4.62091052 0,4.56059513 0,4.5 C0,2.01471863 5.372583,0 12,0 C18.627417,0 24,2.01471863 24,4.5 C24,4.56628328 23.9961784,4.63223184 23.9886135,4.69781639 L24,4.69433594 L24,10 L24,16 Z M23.0014952,11 L23,11 L23,6.30128272 C21.1474836,7.88991189 16.9194417,9 12,9 C7.08055825,9 2.85251643,7.88991189 1,6.30128272 L1,11 L0.998504845,11 C2.85024074,12.7659048 7.07923431,14 12,14 C16.9207657,14 21.1497593,12.7659048 23.0014952,11 Z M12,8 C18.1078598,8 23,6.16544742 23,4.5 C23,2.83455258 18.1078598,1 12,1 C5.89214022,1 1,2.83455258 1,4.5 C1,6.16544742 5.89214022,8 12,8 Z" id="形状结合" fill="#5D6D7E" fill-rule="nonzero"></path>
                    <rect id="矩形" fill="#27A2DF" x="6" y="17" width="20" height="9" rx="1"></rect>
                    <path d="M8,18 L10.048,18 C10.952,18 11.632,18.256 12.096,18.784 C12.52,19.264 12.736,19.96 12.736,20.856 C12.736,21.736 12.504,22.432 12.048,22.928 C11.568,23.448 10.88,23.712 9.984,23.712 L8,23.712 L8,18 Z M8.656,18.568 L8.656,23.144 L9.872,23.144 C10.616,23.144 11.176,22.944 11.552,22.552 C11.904,22.168 12.088,21.6 12.088,20.856 C12.088,20.088 11.92,19.52 11.592,19.152 C11.24,18.76 10.696,18.568 9.944,18.568 L8.656,18.568 Z M13.648,18 L14.464,18 L16.592,22.872 L16.616,22.872 L18.736,18 L19.552,18 L19.552,23.712 L18.896,23.712 L18.896,19.168 L18.872,19.168 L16.896,23.712 L16.304,23.712 L14.328,19.168 L14.304,19.168 L14.304,23.712 L13.648,23.712 L13.648,18 Z M22.28,19.624 L22.824,19.624 L22.824,21.368 L24.568,21.368 L24.568,21.912 L22.824,21.912 L22.824,23.664 L22.28,23.664 L22.28,21.912 L20.528,21.912 L20.528,21.368 L22.28,21.368 L22.28,19.624 Z" id="DM+" fill="#FFFFFF" fill-rule="nonzero"></path>
                </g>
            </g>
        </g>
    </g>
</svg>