<?xml version="1.0" encoding="UTF-8"?>
<svg width="32px" height="32px" viewBox="0 0 32 32" version="1.1" xmlns="http://www.w3.org/2000/svg" xmlns:xlink="http://www.w3.org/1999/xlink">
    <!-- Generator: Sketch 54 (76480) - https://sketchapp.com -->
    <title>EGC高程入库</title>
    <desc>Created with Sketch.</desc>
    <g id="军需图标" stroke="none" stroke-width="1" fill="none" fill-rule="evenodd">
        <g id="画板" transform="translate(-188.000000, -320.000000)">
            <g id="EGC高程入库" transform="translate(188.000000, 320.000000)">
                <g transform="translate(3.000000, 3.000000)">
                    <path d="M7.80699327,0.5 L0.5,0.5 L0.5,22 L1,21.5 C0.723857625,21.5 0.5,21.2761424 0.5,21 L0.5,1 C0.5,0.723857625 0.723857625,0.5 1,0.5 L7.80699327,0.5 Z M7.80699327,0.5 L14.6139865,0.5 L14.2697393,0.362620804 L15.3231125,1.3626208 L15.6673598,0.5 L7.80699327,0.5 Z" id="形状结合" stroke="#ACB4C0" fill="#FFFFFF" fill-rule="nonzero"></path>
                    <path d="M9.80699327,2.5 L2.5,2.5 L2.5,24 L3,23.5 C2.72385763,23.5 2.5,23.2761424 2.5,23 L2.5,3 C2.5,2.72385763 2.72385763,2.5 3,2.5 L9.80699327,2.5 Z M9.80699327,2.5 L16.6139865,2.5 L16.2697393,2.3626208 L17.3231125,3.3626208 L17.6673598,2.5 L9.80699327,2.5 Z" id="形状结合" stroke="#808FA1" fill-rule="nonzero"></path>
                    <path d="M23.5,9.3278702 L18.4144509,4.5 L5,4.5 C4.72385763,4.5 4.5,4.72385763 4.5,5 L4.5,25 C4.5,25.2761424 4.72385763,25.5 5,25.5 L23,25.5 C23.2761424,25.5 23.5,25.2761424 23.5,25 L23.5,9.3278702 Z" id="矩形" stroke="#5D6D7E" fill="#FFFFFF" fill-rule="nonzero"></path>
                    <rect id="矩形" fill="#27A2DF" x="6" y="15" width="20" height="8" rx="1"></rect>
                    <path d="M6.94726562,22 L6.94726562,21.1992188 L7.74804688,21.1992188 L7.74804688,22 L6.94726562,22 Z M9.07617188,22 L9.07617188,16.2734375 L13.2167969,16.2734375 L13.2167969,16.9492188 L9.83398438,16.9492188 L9.83398438,18.703125 L13.0019531,18.703125 L13.0019531,19.375 L9.83398438,19.375 L9.83398438,21.3242188 L13.3496094,21.3242188 L13.3496094,22 L9.07617188,22 Z M17.0761719,19.7539062 L17.0761719,19.0820312 L19.5019531,19.078125 L19.5019531,21.203125 C19.1295554,21.5000015 18.7454447,21.7233065 18.3496094,21.8730469 C17.9537741,22.0227872 17.5475281,22.0976562 17.1308594,22.0976562 C16.5683566,22.0976562 16.057294,21.9772147 15.5976562,21.7363281 C15.1380185,21.4954415 14.7910168,21.1471377 14.5566406,20.6914062 C14.3222645,20.2356748 14.2050781,19.7265653 14.2050781,19.1640625 C14.2050781,18.606768 14.3216134,18.086591 14.5546875,17.6035156 C14.7877616,17.1204403 15.1230447,16.7617199 15.5605469,16.5273438 C15.9980491,16.2929676 16.5019503,16.1757812 17.0722656,16.1757812 C17.4863302,16.1757812 17.8606754,16.2428379 18.1953125,16.3769531 C18.5299496,16.5110684 18.7923168,16.6979155 18.9824219,16.9375 C19.172527,17.1770845 19.3170568,17.4895814 19.4160156,17.875 L18.7324219,18.0625 C18.6464839,17.7708319 18.5397142,17.5416675 18.4121094,17.375 C18.2845046,17.2083325 18.1022147,17.0748703 17.8652344,16.9746094 C17.628254,16.8743485 17.3652358,16.8242188 17.0761719,16.8242188 C16.729816,16.8242188 16.4303398,16.8769526 16.1777344,16.9824219 C15.9251289,17.0878912 15.7213549,17.2265616 15.5664062,17.3984375 C15.4114576,17.5703134 15.2910161,17.7591136 15.2050781,17.9648438 C15.0592441,18.3190122 14.9863281,18.7031229 14.9863281,19.1171875 C14.9863281,19.6276067 15.0742179,20.0546858 15.25,20.3984375 C15.4257821,20.7421892 15.6816389,20.997395 16.0175781,21.1640625 C16.3535173,21.33073 16.7102846,21.4140625 17.0878906,21.4140625 C17.4160173,21.4140625 17.7363266,21.3509121 18.0488281,21.2246094 C18.3613297,21.0983067 18.5983065,20.9635424 18.7597656,20.8203125 L18.7597656,19.7539062 L17.0761719,19.7539062 Z M24.7050781,19.9921875 L25.4628906,20.1835938 C25.3040357,20.8059927 25.0182312,21.2805973 24.6054688,21.6074219 C24.1927063,21.9342464 23.688154,22.0976562 23.0917969,22.0976562 C22.4746063,22.0976562 21.9726582,21.9720065 21.5859375,21.7207031 C21.1992168,21.4693998 20.9049489,21.1054711 20.703125,20.6289062 C20.5013011,20.1523414 20.4003906,19.6406277 20.4003906,19.09375 C20.4003906,18.4973929 20.5143218,17.9772158 20.7421875,17.5332031 C20.9700532,17.0891905 21.2942687,16.7519543 21.7148438,16.5214844 C22.1354188,16.2910145 22.5983048,16.1757812 23.1035156,16.1757812 C23.6764352,16.1757812 24.1582012,16.3216131 24.5488281,16.6132812 C24.9394551,16.9049494 25.2115878,17.3151015 25.3652344,17.84375 L24.6191406,18.0195312 C24.4863275,17.6028625 24.2936211,17.2994801 24.0410156,17.109375 C23.7884102,16.9192699 23.470705,16.8242188 23.0878906,16.8242188 C22.6477843,16.8242188 22.2799494,16.9296864 21.984375,17.140625 C21.6888006,17.3515636 21.4811204,17.6347638 21.3613281,17.9902344 C21.2415359,18.3457049 21.1816406,18.7122377 21.1816406,19.0898438 C21.1816406,19.5768254 21.2526035,20.0019513 21.3945312,20.3652344 C21.536459,20.7285174 21.75716,20.9999991 22.0566406,21.1796875 C22.3561213,21.3593759 22.6803368,21.4492188 23.0292969,21.4492188 C23.4537782,21.4492188 23.8131496,21.3268241 24.1074219,21.0820312 C24.4016942,20.8372384 24.6009109,20.4739607 24.7050781,19.9921875 Z" id=".EGC" fill="#FFFFFF" fill-rule="nonzero"></path>
                    <polyline id="路径-36" stroke="#5D6D7E" points="18.5137939 4.75012207 18.5137939 9.48690796 23.5374146 9.48690796"></polyline>
                    <path d="M7,12.5 L20,12.5 L19.5,12 L19.5,13 L20,12.5 L7,12.5 L7.5,13 L7.5,12 L7,12.5 Z M7,10.5 L15,10.5 L14.5,10 L14.5,11 L15,10.5 L7,10.5 L7.5,11 L7.5,10 L7,10.5 Z" id="形状结合" stroke="#ACB4C0"></path>
                </g>
            </g>
        </g>
    </g>
</svg>