<?xml version="1.0" encoding="UTF-8"?>
<svg width="32px" height="32px" viewBox="0 0 32 32" version="1.1" xmlns="http://www.w3.org/2000/svg" xmlns:xlink="http://www.w3.org/1999/xlink">
    <!-- Generator: Sketch 54 (76480) - https://sketchapp.com -->
    <title>数据拆分</title>
    <desc>Created with Sketch.</desc>
    <g id="军需图标" stroke="none" stroke-width="1" fill="none" fill-rule="evenodd">
        <g id="画板" transform="translate(-188.000000, -278.000000)">
            <g id="数据拆分" transform="translate(188.000000, 278.000000)">
                <g transform="translate(3.000000, 3.000000)">
                    <rect id="矩形" stroke="#5D6D7E" fill="#FFFFFF" x="0.5" y="0.5" width="25" height="25" rx="1"></rect>
                    <g id="编组-33" opacity="0.3" transform="translate(13.000000, 4.000000)">
                        <path d="M0.833333333,3.8106164 C0.306793919,3.62450416 0,3.34261727 0,2.91666667 C0,1.76607344 2.23857625,0 5,0 C7.76142375,0 10,1.76607344 10,2.91666667 C10,3.34261727 9.69320608,3.62450416 9.16666667,3.8106164 L9.16666667,6.76465447 C9.69320608,7.09462194 10,7.49071606 10,7.91666667 C10,9.0672599 7.76142375,10 5,10 C2.23857625,10 0,9.0672599 0,7.91666667 C0,7.49071606 0.306793919,7.09462194 0.833333333,6.76465447 L0.833333333,3.8106164 Z" id="形状结合" fill="#FFFFFF"></path>
                        <path d="M5,5 C7.41754948,5 9.28571429,3.9102372 9.28571429,2.91666667 C9.28571429,1.92309613 7.41754948,0.833333333 5,0.833333333 C2.58245052,0.833333333 0.714285714,1.92309613 0.714285714,2.91666667 C0.714285714,3.9102372 2.58245052,5 5,5 Z M5,5.83333333 C2.23857625,5.83333333 -8.8817842e-16,4.52749719 -8.8817842e-16,2.91666667 C-8.8817842e-16,1.30583615 2.23857625,1.77635684e-15 5,1.77635684e-15 C7.76142375,1.77635684e-15 10,1.30583615 10,2.91666667 C10,4.52749719 7.76142375,5.83333333 5,5.83333333 Z M9.28571429,7.92291379 L9.52334101,6.67452799 C9.82904398,7.05176221 10,7.47338558 10,7.91828787 C10,9.52822302 7.76142375,10.8333333 5,10.8333333 C2.23857625,10.8333333 -8.8817842e-16,9.52822302 -8.8817842e-16,7.91828787 C-8.8817842e-16,7.47029255 0.173341307,7.04590096 0.483054395,6.66666667 L0.714285714,7.86160756 L0.716297619,7.86162195 C0.714959359,7.88053984 0.714285714,7.89943119 0.714285714,7.91828787 C0.714285714,8.91130613 2.58245052,10.0004632 5,10.0004632 C7.41379612,10.0004632 9.27991212,8.91468545 9.28570078,7.92291369 Z M9.16666667,7.11844708 C8.27089872,7.85071821 6.73914229,8.33333333 5,8.33333333 C3.26085771,8.33333333 1.72910128,7.85071821 0.833333333,7.11844708 L0.833333333,8.33333333 L-8.8817842e-16,7.85146145 L-8.8817842e-16,3.02103678 L0.833333333,3.5887486 L0.833333333,6.03002145 C1.28068832,6.82038911 2.94111097,7.55685941 5,7.55685941 C7.05888903,7.55685941 8.71931168,6.82038911 9.16666667,6.03002145 L9.16666667,3.63357046 L10,3.0452474 L10,7.85687422 L9.16666667,8.33333333 L9.16666667,7.11844708 Z" id="合并形状" fill="#27A2DF" fill-rule="nonzero"></path>
                    </g>
                    <g id="编组-33" opacity="0.6" transform="translate(9.000000, 6.000000)">
                        <path d="M0.916666667,4.19167804 C0.337473311,3.98695458 0,3.676879 0,3.20833333 C0,1.94268078 2.46243388,0 5.5,0 C8.53756612,0 11,1.94268078 11,3.20833333 C11,3.676879 10.6625267,3.98695458 10.0833333,4.19167804 L10.0833333,7.44111992 C10.6625267,7.80408413 11,8.23978767 11,8.70833333 C11,9.97398588 8.53756612,11 5.5,11 C2.46243388,11 0,9.97398588 0,8.70833333 C0,8.23978767 0.337473311,7.80408413 0.916666667,7.44111992 L0.916666667,4.19167804 Z" id="形状结合" fill="#FFFFFF"></path>
                        <path d="M5.5,5.5 C8.15930443,5.5 10.2142857,4.30126092 10.2142857,3.20833333 C10.2142857,2.11540575 8.15930443,0.916666667 5.5,0.916666667 C2.84069557,0.916666667 0.785714286,2.11540575 0.785714286,3.20833333 C0.785714286,4.30126092 2.84069557,5.5 5.5,5.5 Z M5.5,6.41666667 C2.46243388,6.41666667 -8.8817842e-16,4.98024691 -8.8817842e-16,3.20833333 C-8.8817842e-16,1.43641976 2.46243388,1.77635684e-15 5.5,1.77635684e-15 C8.53756612,1.77635684e-15 11,1.43641976 11,3.20833333 C11,4.98024691 8.53756612,6.41666667 5.5,6.41666667 Z M10.2142857,8.71520517 L10.4756751,7.34198079 C10.8119484,7.75693843 11,8.22072414 11,8.71011665 C11,10.4810453 8.53756612,11.9166667 5.5,11.9166667 C2.46243388,11.9166667 -8.8817842e-16,10.4810453 -8.8817842e-16,8.71011665 C-8.8817842e-16,8.21732181 0.190675438,7.75049106 0.531359834,7.33333333 L0.785714286,8.64776831 L0.787927381,8.64778414 C0.786455295,8.66859383 0.785714286,8.68937431 0.785714286,8.71011665 C0.785714286,9.80243675 2.84069557,11.0005095 5.5,11.0005095 C8.15517573,11.0005095 10.2079033,9.80615399 10.2142709,8.71520506 Z M10.0833333,7.83029179 C9.09798859,8.63579003 7.41305652,9.16666667 5.5,9.16666667 C3.58694348,9.16666667 1.90201141,8.63579003 0.916666667,7.83029179 L0.916666667,9.16666667 L-8.8817842e-16,8.63660759 L-8.8817842e-16,3.32314046 L0.916666667,3.94762346 L0.916666667,6.63302359 C1.40875715,7.50242803 3.23522207,8.31254535 5.5,8.31254535 C7.76477793,8.31254535 9.59124285,7.50242803 10.0833333,6.63302359 L10.0833333,3.99692751 L11,3.34977214 L11,8.64256164 L10.0833333,9.16666667 L10.0833333,7.83029179 Z" id="合并形状" fill="#27A2DF" fill-rule="nonzero"></path>
                    </g>
                    <g id="编组-33" transform="translate(3.000000, 9.000000)">
                        <path d="M1,4.57273968 C0.368152703,4.349405 0,4.01114073 0,3.5 C0,2.11928813 2.6862915,0 6,0 C9.3137085,0 12,2.11928813 12,3.5 C12,4.01114073 11.6318473,4.349405 11,4.57273968 L11,8.11758537 C11.6318473,8.51354632 12,8.98885927 12,9.5 C12,10.8807119 9.3137085,12 6,12 C2.6862915,12 0,10.8807119 0,9.5 C0,8.98885927 0.368152703,8.51354632 1,8.11758537 L1,4.57273968 Z" id="形状结合" fill="#FFFFFF"></path>
                        <path d="M6,6 C8.90105938,6 11.1428571,4.69228464 11.1428571,3.5 C11.1428571,2.30771536 8.90105938,1 6,1 C3.09894062,1 0.857142857,2.30771536 0.857142857,3.5 C0.857142857,4.69228464 3.09894062,6 6,6 Z M6,7 C2.6862915,7 -8.8817842e-16,5.43299662 -8.8817842e-16,3.5 C-8.8817842e-16,1.56700338 2.6862915,1.77635684e-15 6,1.77635684e-15 C9.3137085,1.77635684e-15 12,1.56700338 12,3.5 C12,5.43299662 9.3137085,7 6,7 Z M11.1428571,9.50749655 L11.4280092,8.00943359 C11.7948528,8.46211466 12,8.96806269 12,9.50194544 C12,11.4338676 9.3137085,13 6,13 C2.6862915,13 -8.8817842e-16,11.4338676 -8.8817842e-16,9.50194544 C-8.8817842e-16,8.96435106 0.208009569,8.45508115 0.579665274,8 L0.857142857,9.43392907 L0.859557143,9.43394634 C0.857951231,9.45664781 0.857142857,9.47931743 0.857142857,9.50194544 C0.857142857,10.6935674 3.09894062,12.0005558 6,12.0005558 C8.89655534,12.0005558 11.1358945,10.6976225 11.1428409,9.50749643 Z M11,8.5421365 C9.92507846,9.42086185 8.08697075,10 6,10 C3.91302925,10 2.07492154,9.42086185 1,8.5421365 L1,10 L-8.8817842e-16,9.42175374 L-8.8817842e-16,3.62524414 L1,4.30649832 L1,7.23602574 C1.53682599,8.18446694 3.52933317,9.06823129 6,9.06823129 C8.47066683,9.06823129 10.463174,8.18446694 11,7.23602574 L11,4.36028456 L12,3.65429687 L12,9.42824906 L11,10 L11,8.5421365 Z" id="合并形状" fill="#27A2DF" fill-rule="nonzero"></path>
                    </g>
                </g>
            </g>
        </g>
    </g>
</svg>