<?xml version="1.0" encoding="UTF-8"?>
<svg width="32px" height="32px" viewBox="0 0 32 32" version="1.1" xmlns="http://www.w3.org/2000/svg" xmlns:xlink="http://www.w3.org/1999/xlink">
    <!-- Generator: Sketch 54 (76480) - https://sketchapp.com -->
    <title>数据合并</title>
    <desc>Created with Sketch.</desc>
    <g id="军需图标" stroke="none" stroke-width="1" fill="none" fill-rule="evenodd">
        <g id="画板" transform="translate(-146.000000, -278.000000)">
            <g id="数据合并" transform="translate(146.000000, 278.000000)">
                <g transform="translate(3.000000, 3.000000)">
                    <rect id="矩形" stroke="#5D6D7E" fill="#FFFFFF" x="0.5" y="0.5" width="25" height="25" rx="1"></rect>
                    <g id="编组-33" opacity="0.3" transform="translate(4.000000, 8.000000)">
                        <path d="M0.833333333,3.8106164 C0.306793919,3.62450416 0,3.34261727 0,2.91666667 C0,1.76607344 2.23857625,0 5,0 C7.76142375,0 10,1.76607344 10,2.91666667 C10,3.34261727 9.69320608,3.62450416 9.16666667,3.8106164 L9.16666667,6.76465447 C9.69320608,7.09462194 10,7.49071606 10,7.91666667 C10,9.0672599 7.76142375,10 5,10 C2.23857625,10 0,9.0672599 0,7.91666667 C0,7.49071606 0.306793919,7.09462194 0.833333333,6.76465447 L0.833333333,3.8106164 Z" id="形状结合" fill="#FFFFFF"></path>
                        <path d="M5,5 C7.41754948,5 9.28571429,3.9102372 9.28571429,2.91666667 C9.28571429,1.92309613 7.41754948,0.833333333 5,0.833333333 C2.58245052,0.833333333 0.714285714,1.92309613 0.714285714,2.91666667 C0.714285714,3.9102372 2.58245052,5 5,5 Z M5,5.83333333 C2.23857625,5.83333333 -8.8817842e-16,4.52749719 -8.8817842e-16,2.91666667 C-8.8817842e-16,1.30583615 2.23857625,1.77635684e-15 5,1.77635684e-15 C7.76142375,1.77635684e-15 10,1.30583615 10,2.91666667 C10,4.52749719 7.76142375,5.83333333 5,5.83333333 Z M9.28571429,7.92291379 L9.52334101,6.67452799 C9.82904398,7.05176221 10,7.47338558 10,7.91828787 C10,9.52822302 7.76142375,10.8333333 5,10.8333333 C2.23857625,10.8333333 -8.8817842e-16,9.52822302 -8.8817842e-16,7.91828787 C-8.8817842e-16,7.47029255 0.173341307,7.04590096 0.483054395,6.66666667 L0.714285714,7.86160756 L0.716297619,7.86162195 C0.714959359,7.88053984 0.714285714,7.89943119 0.714285714,7.91828787 C0.714285714,8.91130613 2.58245052,10.0004632 5,10.0004632 C7.41379612,10.0004632 9.27991212,8.91468545 9.28570078,7.92291369 Z M9.16666667,7.11844708 C8.27089872,7.85071821 6.73914229,8.33333333 5,8.33333333 C3.26085771,8.33333333 1.72910128,7.85071821 0.833333333,7.11844708 L0.833333333,8.33333333 L-8.8817842e-16,7.85146145 L-8.8817842e-16,3.02103678 L0.833333333,3.5887486 L0.833333333,6.03002145 C1.28068832,6.82038911 2.94111097,7.55685941 5,7.55685941 C7.05888903,7.55685941 8.71931168,6.82038911 9.16666667,6.03002145 L9.16666667,3.63357046 L10,3.0452474 L10,7.85687422 L9.16666667,8.33333333 L9.16666667,7.11844708 Z" id="合并形状" fill="#27A2DF" fill-rule="nonzero"></path>
                    </g>
                    <g id="编组-33" opacity="0.3" transform="translate(12.000000, 8.000000)">
                        <path d="M0.833333333,3.8106164 C0.306793919,3.62450416 0,3.34261727 0,2.91666667 C0,1.76607344 2.23857625,0 5,0 C7.76142375,0 10,1.76607344 10,2.91666667 C10,3.34261727 9.69320608,3.62450416 9.16666667,3.8106164 L9.16666667,6.76465447 C9.69320608,7.09462194 10,7.49071606 10,7.91666667 C10,9.0672599 7.76142375,10 5,10 C2.23857625,10 0,9.0672599 0,7.91666667 C0,7.49071606 0.306793919,7.09462194 0.833333333,6.76465447 L0.833333333,3.8106164 Z" id="形状结合" fill="#FFFFFF"></path>
                        <path d="M5,5 C7.41754948,5 9.28571429,3.9102372 9.28571429,2.91666667 C9.28571429,1.92309613 7.41754948,0.833333333 5,0.833333333 C2.58245052,0.833333333 0.714285714,1.92309613 0.714285714,2.91666667 C0.714285714,3.9102372 2.58245052,5 5,5 Z M5,5.83333333 C2.23857625,5.83333333 -8.8817842e-16,4.52749719 -8.8817842e-16,2.91666667 C-8.8817842e-16,1.30583615 2.23857625,1.77635684e-15 5,1.77635684e-15 C7.76142375,1.77635684e-15 10,1.30583615 10,2.91666667 C10,4.52749719 7.76142375,5.83333333 5,5.83333333 Z M9.28571429,7.92291379 L9.52334101,6.67452799 C9.82904398,7.05176221 10,7.47338558 10,7.91828787 C10,9.52822302 7.76142375,10.8333333 5,10.8333333 C2.23857625,10.8333333 -8.8817842e-16,9.52822302 -8.8817842e-16,7.91828787 C-8.8817842e-16,7.47029255 0.173341307,7.04590096 0.483054395,6.66666667 L0.714285714,7.86160756 L0.716297619,7.86162195 C0.714959359,7.88053984 0.714285714,7.89943119 0.714285714,7.91828787 C0.714285714,8.91130613 2.58245052,10.0004632 5,10.0004632 C7.41379612,10.0004632 9.27991212,8.91468545 9.28570078,7.92291369 Z M9.16666667,7.11844708 C8.27089872,7.85071821 6.73914229,8.33333333 5,8.33333333 C3.26085771,8.33333333 1.72910128,7.85071821 0.833333333,7.11844708 L0.833333333,8.33333333 L-8.8817842e-16,7.85146145 L-8.8817842e-16,3.02103678 L0.833333333,3.5887486 L0.833333333,6.03002145 C1.28068832,6.82038911 2.94111097,7.55685941 5,7.55685941 C7.05888903,7.55685941 8.71931168,6.82038911 9.16666667,6.03002145 L9.16666667,3.63357046 L10,3.0452474 L10,7.85687422 L9.16666667,8.33333333 L9.16666667,7.11844708 Z" id="合并形状" fill="#27A2DF" fill-rule="nonzero"></path>
                    </g>
                    <g id="编组-33" transform="translate(6.000000, 6.000000)">
                        <path d="M1.16666667,5.33486295 C0.429511487,5.07430583 0,4.67966418 0,4.08333333 C0,2.47250281 3.13400675,0 7,0 C10.8659932,0 14,2.47250281 14,4.08333333 C14,4.67966418 13.5704885,5.07430583 12.8333333,5.33486295 L12.8333333,9.47051626 C13.5704885,9.93247071 14,10.4870025 14,11.0833333 C14,12.6941639 10.8659932,14 7,14 C3.13400675,14 0,12.6941639 0,11.0833333 C0,10.4870025 0.429511487,9.93247071 1.16666667,9.47051626 L1.16666667,5.33486295 Z" id="形状结合" fill="#FFFFFF"></path>
                        <path d="M7,7 C10.3845693,7 13,5.47433208 13,4.08333333 C13,2.69233459 10.3845693,1.16666667 7,1.16666667 C3.61543072,1.16666667 1,2.69233459 1,4.08333333 C1,5.47433208 3.61543072,7 7,7 Z M7,8.16666667 C3.13400675,8.16666667 -8.8817842e-16,6.33849606 -8.8817842e-16,4.08333333 C-8.8817842e-16,1.8281706 3.13400675,1.77635684e-15 7,1.77635684e-15 C10.8659932,1.77635684e-15 14,1.8281706 14,4.08333333 C14,6.33849606 10.8659932,8.16666667 7,8.16666667 Z M13,11.0920793 L13.3326774,9.34433918 C13.7606616,9.8724671 14,10.4627398 14,11.085603 C14,13.3395122 10.8659932,15.1666667 7,15.1666667 C3.13400675,15.1666667 -8.8817842e-16,13.3395122 -8.8817842e-16,11.085603 C-8.8817842e-16,10.4584096 0.24267783,9.86426135 0.676276153,9.33333333 L1,11.0062506 L1.00281667,11.0062707 C1.0009431,11.0327558 1,11.0592037 1,11.085603 C1,12.4758286 3.61543072,14.0006485 7,14.0006485 C10.3793146,14.0006485 12.991877,12.4805596 12.9999811,11.0920792 Z M12.8333333,9.96582591 C11.5792582,10.9910055 9.43479921,11.6666667 7,11.6666667 C4.56520079,11.6666667 2.4207418,10.9910055 1.16666667,9.96582591 L1.16666667,11.6666667 L-8.8817842e-16,10.992046 L-8.8817842e-16,4.2294515 L1.16666667,5.02424804 L1.16666667,8.44203003 C1.79296365,9.54854476 4.11755536,10.5796032 7,10.5796032 C9.88244464,10.5796032 12.2070364,9.54854476 12.8333333,8.44203003 L12.8333333,5.08699865 L14,4.26334635 L14,10.9996239 L12.8333333,11.6666667 L12.8333333,9.96582591 Z" id="合并形状" fill="#27A2DF" fill-rule="nonzero"></path>
                    </g>
                </g>
            </g>
        </g>
    </g>
</svg>