<?xml version="1.0" encoding="UTF-8"?>
<svg width="32px" height="32px" viewBox="0 0 32 32" version="1.1" xmlns="http://www.w3.org/2000/svg" xmlns:xlink="http://www.w3.org/1999/xlink">
    <!-- Generator: Sketch 54 (76480) - https://sketchapp.com -->
    <title>32-添加数据</title>
    <desc>Created with Sketch.</desc>
    <g id="10-地图" stroke="none" stroke-width="1" fill="none" fill-rule="evenodd">
        <g id="地图" transform="translate(-279.000000, -12.000000)">
            <g id="10-地图" transform="translate(13.000000, 12.000000)">
                <g id="ribbon">
                    <g id="32-添加数据" transform="translate(266.000000, 0.000000)">
                        <g id="添加数据" transform="translate(4.000000, 3.000000)">
                            <path d="M23.9510803,21 L19,21 L19,24.9677899 C17.0297629,25.6174008 14.612366,26 12,26 C5.372583,26 0,23.5375661 0,20.5 C0,20.3314552 0.0165410322,20.164681 0.0489196532,20 L0,20 L0,5 L0.0732383704,5 C0.0248444156,4.83583307 0,4.66900455 0,4.5 C0,2.01471863 5.372583,0 12,0 C18.627417,0 24,2.01471863 24,4.5 C24,4.66900455 23.9751556,4.83583307 23.9267616,5 L24,5 L24,20 L23.9510803,20 C23.983459,20.164681 24,20.3314552 24,20.5 C24,20.6685448 23.983459,20.835319 23.9510803,21 Z" id="形状结合" fill="#FFFFFF"></path>
                            <path d="M24,17.5 L22.0900479,17.5 C22.6760058,17.0198767 23,16.5079274 23,16 L23,12.2919799 C22.6542728,12.5430709 22.2689397,12.7794782 21.8483227,13 L19.2011699,13 C20.8472793,12.484686 22.1649692,11.7970723 23,11.0014252 L23,6.30128272 C21.1474836,7.88991189 16.9194417,9 12,9 C7.08055825,9 2.85251643,7.88991189 1,6.30128272 L1,11 L0.998504845,11 C2.85024074,12.7659048 7.07923431,14 12,14 C13.4025417,14 14.7488843,13.899743 16,13.7154905 L16,14.7274029 C14.7349342,14.9057556 13.3894499,15 12,15 C7.42086943,15 3.3192601,13.9763868 1,12.2919799 L1,16 C1,17.9158695 5.60962688,19.8889607 11.5,19.9954843 L11.5,20.9957384 C6.79541098,20.9153954 2.78944454,19.7064716 1,18.0014252 L1,21.2766433 L1.13903519,21.5620344 C2.04813396,23.4280991 6.61243682,25 12,25 C13.406204,25 14.7563227,24.8929129 16,24.7014588 L16,25.7154905 C14.7488843,25.899743 13.4025417,26 12,26 C6.19450102,26 1.35189228,24.2822403 0.240043477,22 L0,21 L0,16 L0,10 L0,4.56433105 L0.00122119803,4.56486309 C0.000407974277,4.54327848 0,4.5216571 0,4.5 C0,2.01471863 5.372583,3.55271368e-15 12,3.55271368e-15 C18.627417,3.55271368e-15 24,2.01471863 24,4.5 C24,4.50424076 23.9999844,4.50848016 23.9999531,4.51271817 L24,10 L24,16 L24,17.5 Z M22.3946137,23.5 C22.2695379,23.5900911 22.1379095,23.6784053 22,23.7648293 L22,23.5 L22.3946137,23.5 Z M12,8 C18.1078598,8 23,6.16544742 23,4.5 C23,2.83455258 18.1078598,1 12,1 C5.89214022,1 1,2.83455258 1,4.5 C1,6.16544742 5.89214022,8 12,8 Z" id="合并形状" fill="#5D6D7E" fill-rule="nonzero"></path>
                            <path d="M18,20 L18,15 L20,15 L20,20 L25,20 L25,22 L20,22 L20,27 L18,27 L18,22 L13,22 L13,20 L18,20 Z" id="合并形状" fill="#C49F74" fill-rule="nonzero"></path>
                        </g>
                    </g>
                </g>
            </g>
        </g>
    </g>
</svg>