<?xml version="1.0" encoding="UTF-8"?>
<svg width="32px" height="32px" viewBox="0 0 32 32" version="1.1" xmlns="http://www.w3.org/2000/svg" xmlns:xlink="http://www.w3.org/1999/xlink">
    <!-- Generator: Sketch 54 (76480) - https://sketchapp.com -->
    <title>数据处理</title>
    <desc>Created with Sketch.</desc>
    <g id="军需图标" stroke="none" stroke-width="1" fill="none" fill-rule="evenodd">
        <g id="画板" transform="translate(-230.000000, -278.000000)">
            <g id="数据处理" transform="translate(230.000000, 278.000000)">
                <g transform="translate(3.000000, 3.000000)">
                    <path d="M20,17 C20,19.209139 16.6421356,21 12.5,21 C8.35786438,21 5,19.209139 5,17 L5,9 C5,6.790861 8.35786438,5 12.5,5 C16.6421356,5 20,6.790861 20,9 L20,17 Z" id="形状结合" fill="#FFFFFF"></path>
                    <path d="M5.88235294,10.8840242 L5.88235294,11.1159758 L5.88235294,13 C5.88235294,14.4512336 8.78629,16 12.5,16 C16.21371,16 19.1176471,14.4512336 19.1176471,13 L19.1176471,11.1159758 L19.1176471,10.8840242 C17.8546227,12.1432932 15.3649,13 12.5,13 C9.63509997,13 7.14537728,12.1432932 5.88235294,10.8840242 Z M5,9 C5,6.790861 8.35786438,5 12.5,5 C16.6421356,5 20,6.790861 20,9 L20,17 C20,19.209139 16.6421356,21 12.5,21 C8.35786438,21 5,19.209139 5,17 L5,9 Z M12.5,12 C16.21371,12 19.1176471,10.4512336 19.1176471,9 C19.1176471,7.54876643 16.21371,6 12.5,6 C8.78629,6 5.88235294,7.54876643 5.88235294,9 C5.88235294,10.4512336 8.78629,12 12.5,12 Z M19.1176471,15.1159758 L19.1176471,14.8840242 C17.8546227,16.1432932 15.3649,17 12.5,17 C9.63509997,17 7.14537728,16.1432932 5.88235294,14.8840242 L5.88235294,15.1159758 L5.88235294,17 C5.88235294,18.4512336 8.78629,20 12.5,20 C16.21371,20 19.1176471,18.4512336 19.1176471,17 L19.1176471,15.1159758 Z" id="合并形状" fill="#5D6D7E" fill-rule="nonzero"></path>
                    <g id="分组-111" transform="translate(13.000000, 13.000000) scale(1, -1) rotate(270.000000) translate(-13.000000, -13.000000) translate(0.000000, 5.000000)">
                        <path d="M1,0 L1,3 L4,3 L4,4 L0,4 L0,0 L1,0 Z" id="合并形状" fill="#27A2DF"></path>
                        <path d="M23,12 L23,15 L26,15 L26,16 L22,16 L22,12 L23,12 Z" id="合并形状" fill="#30AD98" transform="translate(24.000000, 14.000000) rotate(-180.000000) translate(-24.000000, -14.000000) "></path>
                    </g>
                    <path d="M18.0000005,23.9119153 C22.13106,22.0159007 25,17.8429888 25,13 C25,8.15701121 22.13106,3.98409927 18.0000005,2.08808468 L18,0.996326698 C22.6979037,2.95544595 26,7.59210002 26,13 C26,18.4079 22.6979037,23.0445541 18,25.0036733 L18,23.9119181 Z" id="合并形状" fill="#30AD98" fill-rule="nonzero"></path>
                    <path d="M7.99999949,2.08808468 C3.86894,3.98409927 1,8.15701121 1,13 C1,17.8429888 3.86894,22.0159007 7.99999949,23.9119153 L8,25.0036733 C3.3020963,23.0445541 0,18.4079 0,13 C0,7.59210002 3.3020963,2.95544595 8,0.996326698 L8,2.08808192 Z" id="合并形状" fill="#27A2DF" fill-rule="nonzero"></path>
                </g>
            </g>
        </g>
    </g>
</svg>