<?xml version="1.0" encoding="UTF-8"?>
<svg width="32px" height="32px" viewBox="0 0 32 32" version="1.1" xmlns="http://www.w3.org/2000/svg" xmlns:xlink="http://www.w3.org/1999/xlink">
    <!-- Generator: Sketch 54 (76480) - https://sketchapp.com -->
    <title>生成图幅列表</title>
    <desc>Created with Sketch.</desc>
    <g id="军需图标" stroke="none" stroke-width="1" fill="none" fill-rule="evenodd">
        <g id="画板" transform="translate(-482.000000, -278.000000)">
            <g id="生成图幅列表" transform="translate(482.000000, 278.000000)">
                <g transform="translate(3.000000, 3.000000)">
                    <rect id="矩形" stroke="#ACB4C0" fill="#FFFFFF" x="0.5" y="0.5" width="21" height="21" rx="1"></rect>
                    <path d="M17,18 L5,18 L5,21 L4,21 L4,18 L1,18 L1,17 L4,17 L4,5 L1,5 L1,4 L4,4 L4,1 L5,1 L5,4 L17,4 L17,1 L18,1 L18,4 L21,4 L21,5 L18,5 L18,17 L21,17 L21,18 L18,18 L18,21 L17,21 L17,18 Z M17,17 L17,5 L5,5 L5,17 L17,17 Z" id="形状结合" fill="#ACB4C0"></path>
                    <rect id="矩形" fill="#FFFFFF" x="6" y="4" width="16" height="18"></rect>
                    <g id="编组-31" transform="translate(8.000000, 6.000000)">
                        <polygon id="矩形" fill="#FFFFFF" points="12 0 18 6 12 6"></polygon>
                        <path d="M12.5,0.5 L1,0.5 C0.723857625,0.5 0.5,0.723857625 0.5,1 L0.5,19 C0.5,19.2761424 0.723857625,19.5 1,19.5 L17,19.5 C17.2761424,19.5 17.5,19.2761424 17.5,19 L17.5,5.5 L12.5,5.5 L12.5,0.5 Z" id="合并形状" stroke="#5D6D7E" fill="#FFFFFF" fill-rule="nonzero"></path>
                        <path d="M13.0163574,0.734619141 L17.3201904,4.95874023" id="直线-105" stroke="#5D6D7E" stroke-linecap="square" fill-rule="nonzero"></path>
                        <path d="M3,5 L9,5 L9,6 L3,6 L3,5 Z M3,8 L15,8 L15,9 L3,9 L3,8 Z M3,13 L15,13 L15,14 L3,14 L3,13 Z M3,16 L12,16 L12,17 L3,17 L3,16 Z M3,11 L15,11 L15,12 L3,12 L3,11 Z" id="合并形状" fill="#ACB4C0" fill-rule="nonzero"></path>
                        <path d="M3,8 L15,8 L15,9 L3,9 L3,8 Z M3,13 L15,13 L15,14 L3,14 L3,13 Z" id="合并形状" fill="#C49F74" fill-rule="nonzero"></path>
                    </g>
                </g>
            </g>
        </g>
    </g>
</svg>