<?xml version="1.0" encoding="UTF-8"?>
<svg width="32px" height="32px" viewBox="0 0 32 32" version="1.1" xmlns="http://www.w3.org/2000/svg" xmlns:xlink="http://www.w3.org/1999/xlink">
    <!-- Generator: Sketch 54 (76480) - https://sketchapp.com -->
    <title>海军图数据入库</title>
    <desc>Created with Sketch.</desc>
    <defs>
        <rect id="path-1" x="0.35373866" y="0" width="24" height="25"></rect>
    </defs>
    <g id="军需图标" stroke="none" stroke-width="1" fill="none" fill-rule="evenodd">
        <g id="画板" transform="translate(-566.000000, -278.000000)">
            <g id="海军图数据入库" transform="translate(566.000000, 278.000000)">
                <g transform="translate(3.000000, 3.000000)">
                    <rect id="矩形" stroke="#5D6D7E" fill="#FFFFFF" x="0.5" y="0.5" width="25" height="25" rx="1"></rect>
                    <g id="路径" transform="translate(0.646261, 0.000000)">
                        <mask id="mask-2" fill="white">
                            <use xlink:href="#path-1"></use>
                        </mask>
                        <g id="矩形"></g>
                        <path d="M5.35373866,7.5 C6.35373866,4.5 7.68707199,2.66666667 9.35373866,2 C11.8537387,1 16.3537387,2 17.3537387,3 C18.3537387,4 18.8537387,6.5 21.3537387,6.5 C23.8537387,6.5 25.8537387,3.5 26.8537387,3.5 C27.8537387,3.5 29.3537387,5.5 29.3537387,7 C29.3537387,8.5 25.0777485,20.5 22.9657436,22.5 C20.8537387,24.5 17.3537387,30 16.3537387,27.5 C15.3537387,25 15.623057,23 13.8537387,23 C12.0844203,23 8.35373866,26.5 5.35373866,27 C2.35373866,27.5 -4.64626134,27.5 -2.64626134,25 C-0.64626134,22.5 0.85373866,20.0554537 1.85373866,17.5 C2.52040533,15.7963642 3.68707199,12.4630309 5.35373866,7.5 Z" stroke="#CDD1D7" mask="url(#mask-2)"></path>
                        <path d="M8.35373866,15 C9.02040533,13.6666667 9.18707199,12.5 8.85373866,11.5 C8.35373866,10 8.61177907,10 10.3537387,8.5 C11.3557609,7.63715942 10.7695196,5.84161975 11.3537387,5.5 C11.7851517,5.24773296 13.4289657,6.28761353 13.8537387,6.5 C14.8537387,7 18.8537387,9 19.3537387,9.5 C19.8537387,10 16.8537387,13 16.8537387,13.5 C16.8537387,14 17.413596,16.0554537 18.3836674,15.5 C19.3537387,14.9445463 19.3537387,12.3357864 20.3537387,11.5 C21.3537387,10.6642136 22.9657436,10.5 22.9657436,11.5 C22.9657436,12.5 22.3537387,15 21.8537387,16 C21.3537387,17 17.8537387,22 16.8537387,22 C15.8537387,22 17.3537387,18.1715729 13.3537387,19 C9.35373866,19.8284271 9.35373866,21.5 7.85373866,21 C6.35373866,20.5 4.35373866,21.5 5.85373866,19 C6.85373866,17.3333333 7.68707199,16 8.35373866,15 Z" stroke="#CDD1D7" mask="url(#mask-2)"></path>
                        <path d="M10.8537387,14.5 C10.8537387,13.5 10.8537387,11.3284271 11.8537387,10.6642136 C12.8537387,10 15.3537387,9.75922456 15.3537387,10.6642136 C15.3537387,11.5692026 14.8537387,14 13.8537387,15.5 C12.8537387,17 8.35373866,19 8.85373866,18.31989 C9.35373866,17.63978 10.8537387,15.5 10.8537387,14.5 Z" stroke="#CDD1D7" mask="url(#mask-2)"></path>
                    </g>
                    <path d="M16.4934726,15.5289897 C15.0152918,14.7913957 14,13.2642649 14,11.5 C14,9.01471863 16.0147186,7 18.5,7 C20.9852814,7 23,9.01471863 23,11.5 C23,13.1160024 22.1481811,14.5330518 20.8690558,15.3266358 L22.6616211,16.40625 L25,18.203125 L26,19.1499023 L26,23.5946045 L25,25 L24.2692383,25.3653809 L23.6120049,26.0610352 L13.8231307,26.0610352 L12.456543,25 L8.81079102,25 L9.46136337,22.40625 L7.86083984,21.9265137 L11.7421875,18.4566934 L15.5,17.5 L16.4934726,15.5289897 Z" id="形状结合" fill="#FFFFFF"></path>
                    <g id="编组-10" transform="translate(10.000000, 9.000000)">
                        <circle id="椭圆形" stroke="#3B97D3" cx="8.5" cy="2.5" r="2.5"></circle>
                        <path d="M8.5,5 L8.5,16.6533203" id="直线-12" stroke="#3B97D3" stroke-linecap="square"></path>
                        <path d="M6.50610352,8.5 L10.5134277,8.5" id="直线-13" stroke="#3B97D3" stroke-linecap="square"></path>
                        <path d="M2.45654297,12.5358887 C3.95833333,15.2808431 5.97005208,16.6533203 8.49169922,16.6533203 C11.0133464,16.6533203 12.9600423,15.2808431 14.3317871,12.5358887" id="路径-19" stroke="#3B97D3"></path>
                        <path d="M11,12.9265137 L13.9538574,10.1499023 L16.9077148,12.9265137 L11,12.9265137 Z M4.4408921e-16,12.9265137 L2.95385742,10.1499023 L5.90771484,12.9265137 L4.4408921e-16,12.9265137 Z" id="形状结合" fill="#3B97D3"></path>
                    </g>
                </g>
            </g>
        </g>
    </g>
</svg>