<?xml version="1.0" encoding="UTF-8"?>
<svg width="32px" height="32px" viewBox="0 0 32 32" version="1.1" xmlns="http://www.w3.org/2000/svg" xmlns:xlink="http://www.w3.org/1999/xlink">
    <!-- Generator: Sketch 54 (76480) - https://sketchapp.com -->
    <title>影像数据入库</title>
    <desc>Created with Sketch.</desc>
    <g id="军需图标" stroke="none" stroke-width="1" fill="none" fill-rule="evenodd">
        <g id="画板" transform="translate(-356.000000, -320.000000)">
            <g id="影像数据入库" transform="translate(356.000000, 320.000000)">
                <g transform="translate(3.000000, 3.000000)">
                    <path d="M23.9925304,4.66027832 L24,4.66027832 L24,21.4949951 L23.8041356,21.4949951 C22.7824978,24.0575894 17.8861663,26 12,26 C6.11383366,26 1.21750218,24.0575894 0.195864419,21.4949951 L0,21.4949951 L0,4.66027832 L0.00746964867,4.66027832 C0.00250369102,4.60708186 0,4.55365057 0,4.5 C0,2.01471863 5.372583,0 12,0 C18.627417,0 24,2.01471863 24,4.5 C24,4.55365057 23.9974963,4.60708186 23.9925304,4.66027832 Z" id="形状结合" fill="#FFFFFF"></path>
                    <path d="M24,16 L23,16 L23,12.2919799 C20.6807399,13.9763868 16.5791306,15 12,15 C7.42086943,15 3.3192601,13.9763868 1,12.2919799 L1,16 C1,17.1108219 2.54961142,18.24088 5,19.0152072 L5,20.0616272 C3.26001162,19.5400862 1.86877658,18.8292265 1,18.0014252 L1,21.2766433 L1.13903519,21.5620344 C1.60217419,22.5126983 3.01397673,23.3870155 5,24.0160423 L5,25.0911006 C2.47423848,24.3694766 0.61991865,23.2724782 0,22 L0,21.5374038 L0,16 L0,10 L0,4.67785645 L0.00952171051,4.6809238 C0.00319379764,4.62091052 0,4.56059513 0,4.5 C0,2.01471863 5.372583,0 12,0 C18.627417,0 24,2.01471863 24,4.5 C24,4.56628328 23.9961784,4.63223184 23.9886135,4.69781639 L24,4.69433594 L24,10 L24,16 Z M23.0014952,11 L23,11 L23,6.30128272 C21.1474836,7.88991189 16.9194417,9 12,9 C7.08055825,9 2.85251643,7.88991189 1,6.30128272 L1,11 L0.998504845,11 C2.85024074,12.7659048 7.07923431,14 12,14 C16.9207657,14 21.1497593,12.7659048 23.0014952,11 Z M12,8 C18.1078598,8 23,6.16544742 23,4.5 C23,2.83455258 18.1078598,1 12,1 C5.89214022,1 1,2.83455258 1,4.5 C1,6.16544742 5.89214022,8 12,8 Z" id="形状结合" fill="#5D6D7E" fill-rule="nonzero"></path>
                    <rect id="矩形" fill="#27A2DF" x="6" y="17" width="20" height="9" rx="1"></rect>
                    <path d="M9.69140625,24 L9.69140625,18.2734375 L10.4492188,18.2734375 L10.4492188,24 L9.69140625,24 Z M11.7617188,24 L11.7617188,18.2734375 L12.9023438,18.2734375 L14.2578125,22.328125 C14.3828131,22.7057311 14.473958,22.9882803 14.53125,23.1757812 C14.5963545,22.9674469 14.697916,22.6614604 14.8359375,22.2578125 L16.2070312,18.2734375 L17.2265625,18.2734375 L17.2265625,24 L16.4960938,24 L16.4960938,19.2070312 L14.8320312,24 L14.1484375,24 L12.4921875,19.125 L12.4921875,24 L11.7617188,24 Z M21.1289062,21.7539062 L21.1289062,21.0820312 L23.5546875,21.078125 L23.5546875,23.203125 C23.1822898,23.5000015 22.7981791,23.7233065 22.4023438,23.8730469 C22.0065084,24.0227872 21.6002625,24.0976562 21.1835938,24.0976562 C20.6210909,24.0976562 20.1100283,23.9772147 19.6503906,23.7363281 C19.1907529,23.4954415 18.8437512,23.1471377 18.609375,22.6914062 C18.3749988,22.2356748 18.2578125,21.7265653 18.2578125,21.1640625 C18.2578125,20.606768 18.3743478,20.086591 18.6074219,19.6035156 C18.840496,19.1204403 19.1757791,18.7617199 19.6132812,18.5273438 C20.0507834,18.2929676 20.5546846,18.1757812 21.125,18.1757812 C21.5390646,18.1757812 21.9134098,18.2428379 22.2480469,18.3769531 C22.582684,18.5110684 22.8450511,18.6979155 23.0351562,18.9375 C23.2252614,19.1770845 23.3697912,19.4895814 23.46875,19.875 L22.7851562,20.0625 C22.6992183,19.7708319 22.5924486,19.5416675 22.4648438,19.375 C22.3372389,19.2083325 22.1549491,19.0748703 21.9179688,18.9746094 C21.6809884,18.8743485 21.4179702,18.8242188 21.1289062,18.8242188 C20.7825504,18.8242188 20.4830742,18.8769526 20.2304688,18.9824219 C19.9778633,19.0878912 19.7740893,19.2265616 19.6191406,19.3984375 C19.4641919,19.5703134 19.3437504,19.7591136 19.2578125,19.9648438 C19.1119784,20.3190122 19.0390625,20.7031229 19.0390625,21.1171875 C19.0390625,21.6276067 19.1269522,22.0546858 19.3027344,22.3984375 C19.4785165,22.7421892 19.7343733,22.997395 20.0703125,23.1640625 C20.4062517,23.33073 20.7630189,23.4140625 21.140625,23.4140625 C21.4687516,23.4140625 21.7890609,23.3509121 22.1015625,23.2246094 C22.4140641,23.0983067 22.6510409,22.9635424 22.8125,22.8203125 L22.8125,21.7539062 L21.1289062,21.7539062 Z" id="IMG" fill="#FFFFFF" fill-rule="nonzero"></path>
                </g>
            </g>
        </g>
    </g>
</svg>