<?xml version="1.0" encoding="UTF-8"?>
<svg width="32px" height="32px" viewBox="0 0 32 32" version="1.1" xmlns="http://www.w3.org/2000/svg" xmlns:xlink="http://www.w3.org/1999/xlink">
    <!-- Generator: Sketch 54 (76480) - https://sketchapp.com -->
    <title>影像数据转化</title>
    <desc>Created with Sketch.</desc>
    <g id="军需图标" stroke="none" stroke-width="1" fill="none" fill-rule="evenodd">
        <g id="画板" transform="translate(-146.000000, -320.000000)">
            <g id="影像数据转化" transform="translate(146.000000, 320.000000)">
                <g transform="translate(3.000000, 3.000000)">
                    <g id="编组-32">
                        <rect id="矩形" stroke="#5D6D7E" fill="#FBF4E4" x="0.5" y="0.5" width="16" height="16" rx="1"></rect>
                        <path d="M4,12 L1,12 L1,9 L4,9 L4,5 L9,5 L9,16 L4,16 L4,12 Z M9,1 L12,1 L12,4 L9,4 L9,1 Z" id="形状结合" fill="#DDEEDB"></path>
                        <path d="M13,16 L9,16 L9,12 L13,12 L13,8 L16,8 L16,16 L13,16 Z" id="形状结合" fill="#A5D0E8"></path>
                        <path d="M15,8.5 L12.5,8.5 L12.5,4.5 L17,4.5 L16.5,5 L16.5,4 L17,4.5 L12.5,4.5 L12.5,4.25 L12.5,4.5 L8.5,4.5 L8.5,4.25 L8.5,4.5 L4.5,4.5 L4.5,4.25 L4.5,4.5 L4.25,4.5 L4.5,4.5 L4.5,8.5 L2.5,8.5 L4.5,8.5 L4.5,12.5 L1,12.5 L1.5,12 L1.5,13 L1,12.5 L4.5,12.5 L4.5,16 L4,15.5 L5,15.5 L4.5,16 L4.5,12.5 L8.5,12.5 L8.5,12.75 L8.5,12.5 L12.5,12.5 L12.5,12.75 L12.5,12.5 L15,12.5 L12.5,12.5 L12.5,8.5 L15,8.5 Z M12.5,8.5 L12.5,12.5 L8.5,12.5 L8.5,8.5 L12.5,8.5 Z M8.5,8.5 L8.5,12.5 L4.5,12.5 L4.5,8.5 L8.5,8.5 Z M8.5,8.5 L4.5,8.5 L4.5,4.5 L8.5,4.5 L8.5,8.5 Z M8.5,8.5 L8.5,4.5 L12.5,4.5 L12.5,8.5 L8.5,8.5 Z" id="形状结合" stroke="#5D6D7E"></path>
                    </g>
                    <path d="M11.3011382,17 C11.1049704,16.5231682 11,16.0200119 11,15.5 C11,12.9372208 13.5495456,10.7838329 17,10.173274 L17,17 L11.3011382,17 Z" id="形状结合" fill="#FFFFFF"></path>
                    <g id="编组-33" transform="translate(12.000000, 11.000000)">
                        <path d="M1.16666667,5.33486295 C0.429511487,5.07430583 0,4.67966418 0,4.08333333 C0,2.47250281 3.13400675,5.68434189e-14 7,5.68434189e-14 C10.8659932,5.68434189e-14 14,2.47250281 14,4.08333333 C14,4.67966418 13.5704885,5.07430583 12.8333333,5.33486295 L12.8333333,9.47051626 C13.5704885,9.93247071 14,10.4870025 14,11.0833333 C14,12.6941639 10.8659932,14 7,14 C3.13400675,14 0,12.6941639 0,11.0833333 C0,10.4870025 0.429511487,9.93247071 1.16666667,9.47051626 L1.16666667,5.33486295 Z" id="形状结合" fill="#FFFFFF"></path>
                        <path d="M7,6.92307692 C10.3845693,6.92307692 13,5.41417458 13,4.03846154 C13,2.66274849 10.3845693,1.15384615 7,1.15384615 C3.61543072,1.15384615 1,2.66274849 1,4.03846154 C1,5.41417458 3.61543072,6.92307692 7,6.92307692 Z M7,8.07692308 C3.13400675,8.07692308 0,6.26884226 0,4.03846154 C0,1.80808082 3.13400675,5.68434189e-14 7,5.68434189e-14 C10.8659932,5.68434189e-14 14,1.80808082 14,4.03846154 C14,6.26884226 10.8659932,8.07692308 7,8.07692308 Z M13,10.9701883 L13.3326774,9.24165414 C13.7606616,9.76397845 14,10.3477646 14,10.9637832 C14,13.1929242 10.8659932,15 7,15 C3.13400675,15 0,13.1929242 0,10.9637832 C0,10.343482 0.24267783,9.75586287 0.676276153,9.23076923 L1,10.8853028 L1.00281667,10.8853227 C1.0009431,10.9115167 1,10.937674 1,10.9637832 C1,12.3387316 3.61543072,13.8467952 7,13.8467952 C10.3793146,13.8467952 12.991877,12.3434106 12.9999811,10.9701882 Z M12.8333333,9.85631134 C11.5792582,10.8702252 9.43479921,11.5384615 7,11.5384615 C4.56520079,11.5384615 2.4207418,10.8702252 1.16666667,9.85631134 L1.16666667,11.5384615 L0,10.8712543 L0,4.18297401 L1.16666667,4.96903652 L1.16666667,8.34926047 C1.79296365,9.4436157 4.11755536,10.4633438 7,10.4633438 C9.88244464,10.4633438 12.2070364,9.4436157 12.8333333,8.34926047 L12.8333333,5.03109756 L14,4.21649639 L14,10.8787489 L12.8333333,11.5384615 L12.8333333,9.85631134 Z" id="合并形状" fill="#5D6D7E" fill-rule="nonzero"></path>
                    </g>
                    <g id="编组-34" transform="translate(18.000000, 2.000000)" stroke="#27A2DF">
                        <polyline id="路径-37" stroke-linecap="round" points="2.7421875 5 4.77899732 7 6.7421875 5"></polyline>
                        <path d="M4.7421875,7 L4.7421875,3.65837175 C4.28954633,1.21945725 2.956213,0 0.7421875,0" id="路径-38"></path>
                    </g>
                </g>
            </g>
        </g>
    </g>
</svg>