<?xml version="1.0" encoding="UTF-8"?>
<svg width="32px" height="32px" viewBox="0 0 32 32" version="1.1" xmlns="http://www.w3.org/2000/svg" xmlns:xlink="http://www.w3.org/1999/xlink">
    <!-- Generator: Sketch 54 (76480) - https://sketchapp.com -->
    <title>数据入库</title>
    <desc>Created with Sketch.</desc>
    <g id="军需图标" stroke="none" stroke-width="1" fill="none" fill-rule="evenodd">
        <g id="画板" transform="translate(-20.000000, -278.000000)">
            <g id="数据入库" transform="translate(20.000000, 278.000000)">
                <g transform="translate(3.000000, 3.000000)">
                    <path d="M6.92424563,11.5 L0.709305699,17.9826382 L1.29466899,18.5362546 L6.28401339,22.5771484 L21.4903817,22.5771484 L24.6988912,18.5660049 L25.2900335,17.9922803 L18.8853828,11.5 L6.92424563,11.5 Z" id="矩形" stroke="#5D6D7E" fill="#FFFFFF"></path>
                    <path d="M0.5,18.5 L0.5,25 C0.5,25.2761424 0.723857625,25.5 1,25.5 L25,25.5 C25.2761424,25.5 25.5,25.2761424 25.5,25 L25.5,18.5 L20.1062935,18.5 L17.2175606,21.5515747 L8.78057538,21.5515747 L6.03600751,18.5 L0.5,18.5 Z" id="矩形" stroke="#5D6D7E" fill="#FFFFFF"></path>
                    <g id="数据处理" transform="translate(6.000000, 0.000000)">
                        <g id="编组-8">
                            <path d="M15,12 C15,14.209139 11.6421356,16 7.5,16 C3.35786438,16 0,14.209139 0,12 L0,4 C0,1.790861 3.35786438,0 7.5,0 C11.6421356,0 15,1.790861 15,4 L15,12 Z" id="形状结合" fill="#FFFFFF"></path>
                            <path d="M6,10.9141935 L6,11.9199855 C3.78168676,11.6798288 1.91890724,10.9174966 0.882352941,9.88402425 L0.882352941,10.1159758 L0.882352941,12 C0.882352941,13.4512336 3.78629,15 7.5,15 C11.21371,15 14.1176471,13.4512336 14.1176471,12 L14.1176471,10.1159758 L14.1176471,9.88402425 C13.0810928,10.9174966 11.2183132,11.6798288 9,11.9199855 L9,10.9141935 C11.9668039,10.5701566 14.1176471,9.24895874 14.1176471,8 L14.1176471,6.11597575 L14.1176471,5.88402425 C12.8546227,7.14329324 10.3649,8 7.5,8 C4.63509997,8 2.14537728,7.14329324 0.882352941,5.88402425 L0.882352941,6.11597575 L0.882352941,8 C0.882352941,9.24895874 3.03319612,10.5701566 6,10.9141935 Z M0,4 C0,1.790861 3.35786438,0 7.5,0 C11.6421356,0 15,1.790861 15,4 L15,12 C15,14.209139 11.6421356,16 7.5,16 C3.35786438,16 0,14.209139 0,12 L0,4 Z M7.5,7 C11.21371,7 14.1176471,5.45123357 14.1176471,4 C14.1176471,2.54876643 11.21371,1 7.5,1 C3.78629,1 0.882352941,2.54876643 0.882352941,4 C0.882352941,5.45123357 3.78629,7 7.5,7 Z" id="形状结合" fill="#5D6D7E" fill-rule="nonzero"></path>
                        </g>
                        <path d="M6.49514829,11.4180908 L6.49514829,16.5138855 L3.72572699,16.5138855 C3.61527004,16.5138855 3.52572699,16.6034285 3.52572699,16.7138855 C3.52572699,16.7745265 3.55324027,16.8318925 3.60053033,16.8698528 L7.5,20 L11.4195924,16.8701729 C11.5059076,16.8012495 11.5200064,16.6754039 11.4510831,16.5890887 C11.413132,16.5415612 11.3556162,16.5138855 11.2947956,16.5138855 L8.50457764,16.5138855 L8.50457764,11.4180908" id="路径-7" stroke="#27A2DF" fill="#FFFFFF" stroke-linecap="square"></path>
                    </g>
                </g>
            </g>
        </g>
    </g>
</svg>