<?xml version="1.0" encoding="UTF-8"?>
<svg width="32px" height="32px" viewBox="0 0 32 32" version="1.1" xmlns="http://www.w3.org/2000/svg" xmlns:xlink="http://www.w3.org/1999/xlink">
    <!-- Generator: Sketch 54 (76480) - https://sketchapp.com -->
    <title>高级工具</title>
    <desc>Created with Sketch.</desc>
    <g id="军需图标" stroke="none" stroke-width="1" fill="none" fill-rule="evenodd">
        <g id="画板" transform="translate(-62.000000, -278.000000)">
            <g id="高级工具" transform="translate(62.000000, 278.000000)">
                <g transform="translate(3.000000, 3.000000)">
                    <path d="M1,0.5 C0.723857625,0.5 0.5,0.723857625 0.5,1 L0.5,25 C0.5,25.2761424 0.723857625,25.5 1,25.5 L25,25.5 C25.2761424,25.5 25.5,25.2761424 25.5,25 L25.5,1 C25.5,0.723857625 25.2761424,0.5 25,0.5 L1,0.5 Z" id="路径" stroke="#5D6D7E" fill="#FFFFFF" fill-rule="nonzero"></path>
                    <path d="M1,5 L25,5 L25,6 L1,6 L1,5 Z M16,3 L21,3 L21,4 L16,4 L16,3 Z M22,3 L24,3 L24,4 L22,4 L22,3 Z" id="合并形状" fill="#5D6D7E"></path>
                    <path d="M15.5,25.5 L18.227273,25.5 L18.227273,15.3600616 L18.5110961,15.2239726 C19.7167057,14.6459004 20.5,13.4266703 20.5,12.065955 C20.5,10.5799325 19.5670607,9.28750174 18.227273,8.78675328 L18.227273,10.1666672 C18.227273,10.9197828 17.6167521,11.5303037 16.8636365,11.5303037 C16.1105209,11.5303037 15.5,10.9197828 15.5,10.1666672 L15.5,8.90224956 C14.3034085,9.46968608 13.5,10.687818 13.5,12.065955 C13.5,13.3302337 14.1755479,14.4762764 15.250363,15.0980233 L15.5,15.2424305 L15.5,25.5 Z" id="合并形状" stroke="#27A2DF" fill-opacity="0.5" fill="#FFFFFF"></path>
                    <g id="编组-27" transform="translate(7.000000, 8.000000)" fill="#FFFFFF" stroke="#C49F74">
                        <path d="M1.34401064,0.5 L0.550695746,3.84474298 L1.96295355,5.26528951 L3.44698901,3.8381279 L2.6462784,0.5 L1.34401064,0.5 Z" id="矩形"></path>
                        <path d="M2,5.5 L2,10.3225098" id="直线-51" stroke-linecap="square"></path>
                        <path d="M0.5,17.5 L3.5,17.5 L3.5,12 C3.5,11.1715729 2.82842712,10.5 2,10.5 C1.17157288,10.5 0.5,11.1715729 0.5,12 L0.5,17.5 Z" id="矩形"></path>
                    </g>
                </g>
            </g>
        </g>
    </g>
</svg>