<?xml version="1.0" encoding="UTF-8"?>
<svg width="32px" height="32px" viewBox="0 0 32 32" version="1.1" xmlns="http://www.w3.org/2000/svg" xmlns:xlink="http://www.w3.org/1999/xlink">
    <!-- Generator: Sketch 54 (76480) - https://sketchapp.com -->
    <title>32-瓦片检查</title>
    <desc>Created with Sketch.</desc>
    <g id="10-地图" stroke="none" stroke-width="1" fill="none" fill-rule="evenodd">
        <g id="地图" transform="translate(-89.000000, -88.000000)">
            <g id="10-地图" transform="translate(13.000000, 12.000000)">
                <g id="gallery" transform="translate(0.000000, 76.000000)">
                    <g id="32-瓦片检查" transform="translate(76.000000, 0.000000)">
                        <g id="瓦片检查" transform="translate(2.000000, 3.000000)">
                            <g id="检查">
                                <circle id="椭圆形" fill="#FFFFFF" cx="15.5" cy="10.5" r="10.5"></circle>
                                <path d="M24.8822483,12 C24.9597491,11.5114018 25,11.0104015 25,10.5 C25,5.25329488 20.7467051,1 15.5,1 C10.2532949,1 6,5.25329488 6,10.5 C6,14.8814834 8.96615963,18.5701831 13,19.6676202 L13,20.7005543 C8.40798921,19.5789931 5,15.4374858 5,10.5 C5,4.70101013 9.70101013,0 15.5,0 C21.2989899,0 26,4.70101013 26,10.5 C26,11.009282 25.9637421,11.5100955 25.8936667,12 L24.8822483,12 Z" id="合并形状" fill="#5D6D7E" fill-rule="nonzero"></path>
                                <path d="M18.5258026,4.74573259 C17.6220677,4.269534 16.5925104,4 15.5,4 C11.9101491,4 9,6.91014913 9,10.5 C9,11.3417221 9.15999261,12.146076 9.45122577,12.8843095 L8.66417816,13.5901769 C8.23753295,12.6478772 8,11.601678 8,10.5 C8,6.35786438 11.3578644,3 15.5,3 C16.8920257,3 18.1954763,3.37923556 19.3126709,4.040026 L18.5258026,4.74573259 Z" id="合并形状" fill="#808FA1" fill-rule="nonzero"></path>
                                <rect id="矩形" fill="#5D6D7E" fill-rule="nonzero" transform="translate(4.596194, 21.596194) rotate(-315.000000) translate(-4.596194, -21.596194) " x="3.09619408" y="16.5961941" width="3" height="10" rx="1.5"></rect>
                            </g>
                            <g id="分组-131" transform="translate(15.000000, 14.000000)" fill-rule="nonzero">
                                <path d="M0,9 L3,9 L3,12 L0,12 L0,9 Z M0,5 L3,5 L3,8 L0,8 L0,5 Z M0,1 L3,1 L3,4 L0,4 L0,1 Z M4,9 L7,9 L7,12 L4,12 L4,9 Z M4,5 L7,5 L7,8 L4,8 L4,5 Z M8,9 L11,9 L11,12 L8,12 L8,9 Z" id="合并形状" fill="#27A2DF"></path>
                                <path d="M10,2.5243549e-29 L13,2.5243549e-29 L13,3 L10,3 L10,2.5243549e-29 Z M10.1213203,4 L12.2426407,6.12132034 L10.1213203,8.24264069 L8,6.12132034 L10.1213203,4 Z M6.12132034,-9.65894031e-14 L8.24264069,2.12132034 L6.12132034,4.24264069 L4,2.12132034 L6.12132034,-9.65894031e-14 Z" id="合并形状" fill="#30AD98"></path>
                            </g>
                        </g>
                    </g>
                </g>
            </g>
        </g>
    </g>
</svg>