<?xml version="1.0" encoding="UTF-8"?>
<svg width="32px" height="32px" viewBox="0 0 32 32" version="1.1" xmlns="http://www.w3.org/2000/svg" xmlns:xlink="http://www.w3.org/1999/xlink">
    <!-- Generator: Sketch 54 (76480) - https://sketchapp.com -->
    <title>32-图例</title>
    <desc>Created with Sketch.</desc>
    <g id="21-对象操作" stroke="none" stroke-width="1" fill="none" fill-rule="evenodd">
        <g id="对象操作" transform="translate(-241.000000, -12.000000)" fill-rule="nonzero">
            <g id="21-对象操作" transform="translate(13.000000, 12.000000)">
                <g id="ribbon">
                    <g id="32-图例" transform="translate(228.000000, 0.000000)">
                        <g id="图例" transform="translate(3.000000, 3.000000)">
                            <rect id="矩形" stroke="#5D6D7E" fill="#FFFFFF" x="0.5" y="0.5" width="25" height="25" rx="1"></rect>
                            <path d="M4,9 L6,9 L6,11 L4,11 L4,9 Z M4,13 L6,13 L6,15 L4,15 L4,13 Z M4,17 L6,17 L6,19 L4,19 L4,17 Z M4,21 L6,21 L6,23 L4,23 L4,21 Z M14,9 L16,9 L16,11 L14,11 L14,9 Z M14,13 L16,13 L16,15 L14,15 L14,13 Z M14,17 L16,17 L16,19 L14,19 L14,17 Z M14,21 L16,21 L16,23 L14,23 L14,21 Z" id="合并形状" fill="#808FA1"></path>
                            <path d="M7,9 L12,9 L12,11 L7,11 L7,9 Z M7,13 L12,13 L12,15 L7,15 L7,13 Z M7,17 L12,17 L12,19 L7,19 L7,17 Z M7,21 L12,21 L12,23 L7,23 L7,21 Z M17,9 L22,9 L22,11 L17,11 L17,9 Z M17,13 L22,13 L22,15 L17,15 L17,13 Z M17,17 L22,17 L22,19 L17,19 L17,17 Z M17,21 L22,21 L22,23 L17,23 L17,21 Z" id="合并形状" fill="#ACB4C0"></path>
                            <rect id="矩形" fill="#30AD98" x="4" y="4" width="18" height="3"></rect>
                        </g>
                    </g>
                </g>
            </g>
        </g>
    </g>
</svg>