<?xml version="1.0" encoding="UTF-8"?>
<svg width="32px" height="32px" viewBox="0 0 32 32" version="1.1" xmlns="http://www.w3.org/2000/svg" xmlns:xlink="http://www.w3.org/1999/xlink">
    <!-- Generator: Sketch 54 (76480) - https://sketchapp.com -->
    <title>地图复位</title>
    <desc>Created with Sketch.</desc>
    <g id="军需图标" stroke="none" stroke-width="1" fill="none" fill-rule="evenodd">
        <g id="画板" transform="translate(-272.000000, -278.000000)">
            <g id="地图复位" transform="translate(272.000000, 278.000000)">
                <g id="分组" transform="translate(3.000000, 2.000000)">
                    <path d="M24.5,26.5 L24.5,2.5 L5.4757062,2.5 L5.35787435,2.16662304 C5.00773556,1.17598928 4.06807452,0.5 3,0.5 C1.61928813,0.5 0.5,1.61928813 0.5,3 L0.5,24 C0.5,25.3807119 1.61928813,26.5 3,26.5 L24.5,26.5 Z" id="合并形状" stroke="#5D6D7E" fill="#FFFFFF"></path>
                    <g id="编组-20" transform="translate(5.000000, 5.315597)">
                        <path d="M0.5,0.684402939 C0.478068724,5.98606716 3.35307361,8.95462892 9.12501466,9.5900882 C17.7829262,10.5432771 18.0648193,17.6844029 19.0648193,17.6844029" id="路径-2" stroke="#D5D9DF"></path>
                        <circle id="椭圆形" fill="#D8D8D8" cx="4.5" cy="11.8222506" r="1.5"></circle>
                        <g id="编组-11" transform="translate(8.000000, 3.006654)" stroke="#ACB4C0">
                            <rect id="矩形" x="0.5" y="0.5" width="7" height="4"></rect>
                            <path d="M0.5,3 L0.5,7.5" id="直线-2" stroke-linecap="square"></path>
                        </g>
                    </g>
                    <path d="M6,24 L5,24 C5,22.8954305 4.1045695,22 3,22 C1.8954305,22 1,22.8954305 1,24 L0,24 C0,22.3431458 1.34314575,21 3,21 C3.76835444,21 4.46924351,21.2888536 5,21.7638935 L5,2 L6,2 L6,24 Z" id="合并形状" fill="#5D6D7E" fill-rule="nonzero"></path>
                    <polygon id="矩形" fill="#FFFFFF" points="20.5 20 22.4086914 17 25 17 25 27 15 27 15 24.4848633"></polygon>
                    <g id="编组-28" transform="translate(16.182983, 16.322251)">
                        <path d="M0.505126953,1.67774939 L5.3170166,1.67774939 C7.80229798,1.67774939 9.8170166,3.69246801 9.8170166,6.17774939 C9.8170166,8.66303076 7.80229798,10.6777494 5.3170166,10.6777494 L0.817016602,10.6777494 L0.817016602,9.67774939 L5.3170166,9.67774939 C7.25001323,9.67774939 8.8170166,8.11074601 8.8170166,6.17774939 C8.8170166,4.24475276 7.25001323,2.67774939 5.3170166,2.67774939 L0.548814115,2.67774939 L0.505126953,1.67774939 Z" id="形状结合" fill="#30AD98" fill-rule="nonzero"></path>
                        <polyline id="路径-34" stroke="#30AD98" stroke-linecap="round" points="2.35205078 2.04281037e-14 5.55111512e-15 2.31559706 2.35205078 4.67774939"></polyline>
                    </g>
                </g>
            </g>
        </g>
    </g>
</svg>