<?xml version="1.0" encoding="UTF-8"?>
<svg width="32px" height="32px" viewBox="0 0 32 32" version="1.1" xmlns="http://www.w3.org/2000/svg" xmlns:xlink="http://www.w3.org/1999/xlink">
    <!-- Generator: Sketch 54 (76480) - https://sketchapp.com -->
    <title>输出pdf</title>
    <desc>Created with Sketch.</desc>
    <g id="军需图标" stroke="none" stroke-width="1" fill="none" fill-rule="evenodd">
        <g id="画板" transform="translate(-62.000000, -320.000000)">
            <g id="输出pdf" transform="translate(62.000000, 320.000000)">
                <g transform="translate(3.000000, 3.000000)">
                    <path d="M21,10 L21.965332,10 L26,14.0883789 L26,26 L5,26 L5,24 L1,24 C0.44771525,24 6.76353751e-17,23.5522847 0,23 L0,1 C-6.76353751e-17,0.44771525 0.44771525,1.01453063e-16 1,0 L20,0 C20.5522847,-1.01453063e-16 21,0.44771525 21,1 L21,10 Z" id="形状结合" fill="#FFFFFF"></path>
                    <path d="M3,23 L3,24 L1,24 C0.44771525,24 0,23.5522847 0,23 L0,1 C0,0.44771525 0.44771525,0 1,0 L20,0 C20.5522847,0 21,0.44771525 21,1 L21,2 L20,2 L20,1 L1,1 L1,23 L3,23 Z" id="合并形状" fill="#5D6D7E" fill-rule="nonzero"></path>
                    <path d="M21.5,10.5 L5.5,10.5 L5.5,25.5 L25.5,25.5 L25.5,14.5 L21.5,14.5 L21.5,10.5 Z" id="合并形状" stroke="#5D6D7E" fill-rule="nonzero"></path>
                    <path d="M22,10.739563 L25.2874146,14" id="直线-106" stroke="#5D6D7E" stroke-linecap="square" fill-rule="nonzero"></path>
                    <path d="M8,13.5 L18,13.5 L17.5,13 L17.5,14 L18,13.5 L8,13.5 L8.5,14 L8.5,13 L8,13.5 Z M8,16.5 L18,16.5 L17.5,16 L17.5,17 L18,16.5 L8,16.5 L8.5,17 L8.5,16 L8,16.5 Z M11.5,21.75 L11.5,21.5 L13.5,21.5 L13.5,19.5 L11.5,19.5 L11.5,21.75 Z M11.5,21.5 L11.5,19.5 L13.5,19.5 L13.5,21.5 L11.5,21.5 Z M15.5,23.25 L15.5,19 L15,19.5 L15.75,19.5 L15.5,19.5 L15.5,23.25 Z M15.75,19.5 L17,19.5 L16.5,19 L16.5,20 L17,19.5 L15.75,19.5 Z M15.5,23.25 L15.5,23.5 L17,23.5 L16.5,23 L16.5,24 L17,23.5 L15,23.5 L15.5,24 L15.5,23.25 Z M17,20.5 L18,20.5 L17.5,20 L17.5,23 L18,22.5 L17,22.5 L17.5,23 L17.5,20 L17,20.5 Z M19.5,19.75 L19.5,19 L19,19.5 L19.75,19.5 L19.5,19.5 L19.5,19.75 Z M19.75,19.5 L22,19.5 L21.5,19 L21.5,20 L22,19.5 L19.75,19.5 Z M19.75,21.5 L22,21.5 L21.5,21 L21.5,22 L22,21.5 L19.75,21.5 Z M19.5,21.75 L19.5,24 L20,23.5 L19,23.5 L19.5,24 L19.5,21.75 Z M9,23.5 L10,23.5 L9.5,23 L9.5,24 L10,23.5 L9,23.5 L9.5,24 L9.5,23 L9,23.5 Z" id="合并形状" stroke="#808FA1" fill="#D8D8D8" fill-rule="nonzero"></path>
                    <g id="分组-149" transform="translate(16.000000, 2.000000)" fill-rule="nonzero" stroke="#27A2DF">
                        <polyline id="路径-134" points="5.89746094 0.815429688 9.02880859 4.00195312 5.89746094 7.01025391"></polyline>
                        <path d="M8.02880859,3.9128418 L0.5,3.9128418" id="直线-109" stroke-linecap="square"></path>
                    </g>
                </g>
            </g>
        </g>
    </g>
</svg>