<?xml version="1.0" encoding="UTF-8"?>
<svg width="32px" height="32px" viewBox="0 0 32 32" version="1.1" xmlns="http://www.w3.org/2000/svg" xmlns:xlink="http://www.w3.org/1999/xlink">
    <!-- Generator: Sketch 54 (76480) - https://sketchapp.com -->
    <title>32-数据更新</title>
    <desc>Created with Sketch.</desc>
    <g id="2-数据" stroke="none" stroke-width="1" fill="none" fill-rule="evenodd">
        <g id="数据" transform="translate(-884.000000, -12.000000)">
            <g id="2-数据" transform="translate(10.000000, 12.000000)">
                <g id="gallery" transform="translate(304.000000, 0.000000)">
                    <g id="32-数据更新" transform="translate(570.000000, 0.000000)">
                        <g id="分组-85" transform="translate(3.000000, 3.000000)">
                            <rect id="矩形" stroke="#5D6D7E" fill="#DDEEDB" x="10.5" y="10.5" width="15" height="15" rx="1"></rect>
                            <path d="M16.5,8.5 L16.5,1 C16.5,0.723857625 16.2761424,0.5 16,0.5 L1,0.5 C0.723857625,0.5 0.5,0.723857625 0.5,1 L0.5,16 C0.5,16.2761424 0.723857625,16.5 1,16.5 L8.5,16.5 L8.5,8.5 L16.5,8.5 Z" id="合并形状" stroke="#5D6D7E" fill="#FFFFFF"></path>
                            <path d="M8,8 L8,1 L9,1 L9,8 L17,8 L17,9 L9,9 L9,16 L8,16 L8,9 L0,9 L0,8 L8,8 Z" id="合并形状" fill="#5D6D7E"></path>
                            <rect id="矩形" fill="#A5D0E8" opacity="0.5" x="1" y="1" width="7" height="7"></rect>
                        </g>
                    </g>
                </g>
            </g>
        </g>
    </g>
</svg>