<?xml version="1.0" encoding="UTF-8"?>
<svg width="32px" height="32px" viewBox="0 0 32 32" version="1.1" xmlns="http://www.w3.org/2000/svg" xmlns:xlink="http://www.w3.org/1999/xlink">
    <!-- Generator: Sketch 54 (76480) - https://sketchapp.com -->
    <title>海图数据入库</title>
    <desc>Created with Sketch.</desc>
    <g id="军需图标" stroke="none" stroke-width="1" fill="none" fill-rule="evenodd">
        <g id="画板" transform="translate(-104.000000, -320.000000)">
            <g id="海图数据入库" transform="translate(104.000000, 320.000000)">
                <g id="导入" transform="translate(6.000000, 3.000000)">
                    <path d="M2.00952148,3.9609375 C2.16674883,3.9609375 2.29947863,4.01562445 2.40771484,4.125 C2.51595106,4.23437555 2.57006836,4.367675 2.57006836,4.52490234 C2.57006836,4.67757238 2.51481175,4.8085932 2.40429688,4.91796875 C2.293782,5.0273443 2.16219152,5.08203125 2.00952148,5.08203125 C1.85457279,5.08203125 1.72241266,5.02677464 1.61303711,4.91625977 C1.50366156,4.80574489 1.44897461,4.6730151 1.44897461,4.51806641 C1.44897461,4.36539637 1.50309191,4.2349452 1.61132812,4.12670898 C1.71956434,4.01847277 1.85229414,3.96321616 2.00952148,3.9609375 Z M5.57446289,0.252441406 C6.18742168,0.252441406 6.69669394,0.451820923 7.10229492,0.850585938 C7.55802637,1.29948141 7.78588867,1.91584895 7.78588867,2.69970703 C7.78588867,2.94580201 7.75170933,3.19531124 7.68334961,3.44824219 C7.61498989,3.70117314 7.52156635,3.92106026 7.40307617,4.10791016 C7.19571836,4.4360368 6.9222836,4.68554602 6.58276367,4.85644531 C6.28198092,5.00683669 5.94702333,5.08203125 5.57788086,5.08203125 C4.96492207,5.08203125 4.45678913,4.88151242 4.0534668,4.48046875 C3.85978093,4.28678289 3.70939181,4.06803507 3.60229492,3.82421875 C3.44734623,3.46419091 3.36987305,3.0779643 3.36987305,2.66552734 C3.36987305,2.10953498 3.49747594,1.62874552 3.75268555,1.22314453 C3.95320738,0.901853862 4.22664215,0.65348395 4.57299805,0.478027344 C4.86010886,0.332193281 5.19392713,0.256998721 5.57446289,0.252441406 Z M5.57446289,1.04541016 C5.21215639,1.04541016 4.92391058,1.20605308 4.7097168,1.52734375 C4.51147362,1.82584785 4.41235352,2.19612409 4.41235352,2.63818359 C4.41235352,3.0802431 4.51147362,3.45051934 4.7097168,3.74902344 C4.92391058,4.07031411 5.2132957,4.23095703 5.57788086,4.23095703 C5.94474467,4.23095703 6.2341298,4.07031411 6.44604492,3.74902344 C6.6442881,3.45051934 6.7434082,3.08707896 6.7434082,2.65869141 C6.7434082,2.19612399 6.6442881,1.81901188 6.44604492,1.52734375 C6.2341298,1.2106104 5.94360536,1.04996747 5.57446289,1.04541016 Z M10.5681152,0.252441406 C11.181074,0.252441406 11.6903463,0.451820923 12.0959473,0.850585938 C12.5516787,1.29948141 12.779541,1.91584895 12.779541,2.69970703 C12.779541,2.94580201 12.7453617,3.19531124 12.677002,3.44824219 C12.6086422,3.70117314 12.5152187,3.92106026 12.3967285,4.10791016 C12.1893707,4.4360368 11.9159359,4.68554602 11.576416,4.85644531 C11.2756333,5.00683669 10.9406757,5.08203125 10.5715332,5.08203125 C9.95857441,5.08203125 9.45044147,4.88151242 9.04711914,4.48046875 C8.85343328,4.28678289 8.70304416,4.06803507 8.59594727,3.82421875 C8.44099857,3.46419091 8.36352539,3.0779643 8.36352539,2.66552734 C8.36352539,2.10953498 8.49112828,1.62874552 8.74633789,1.22314453 C8.94685973,0.901853862 9.22029449,0.65348395 9.56665039,0.478027344 C9.8537612,0.332193281 10.1875795,0.256998721 10.5681152,0.252441406 Z M10.5681152,1.04541016 C10.2058087,1.04541016 9.91756292,1.20605308 9.70336914,1.52734375 C9.50512596,1.82584785 9.40600586,2.19612409 9.40600586,2.63818359 C9.40600586,3.0802431 9.50512596,3.45051934 9.70336914,3.74902344 C9.91756292,4.07031411 10.206948,4.23095703 10.5715332,4.23095703 C10.938397,4.23095703 11.2277821,4.07031411 11.4396973,3.74902344 C11.6379404,3.45051934 11.7370605,3.08707896 11.7370605,2.65869141 C11.7370605,2.19612399 11.6379404,1.81901188 11.4396973,1.52734375 C11.2277821,1.2106104 10.9372577,1.04996747 10.5681152,1.04541016 Z M15.5617676,0.252441406 C16.1747264,0.252441406 16.6839986,0.451820923 17.0895996,0.850585938 C17.5453311,1.29948141 17.7731934,1.91584895 17.7731934,2.69970703 C17.7731934,2.94580201 17.739014,3.19531124 17.6706543,3.44824219 C17.6022946,3.70117314 17.508871,3.92106026 17.3903809,4.10791016 C17.1830231,4.4360368 16.9095883,4.68554602 16.5700684,4.85644531 C16.2692856,5.00683669 15.934328,5.08203125 15.5651855,5.08203125 C14.9522268,5.08203125 14.4440938,4.88151242 14.0407715,4.48046875 C13.8470856,4.28678289 13.6966965,4.06803507 13.5895996,3.82421875 C13.4346509,3.46419091 13.3571777,3.0779643 13.3571777,2.66552734 C13.3571777,2.10953498 13.4847806,1.62874552 13.7399902,1.22314453 C13.9405121,0.901853862 14.2139468,0.65348395 14.5603027,0.478027344 C14.8474135,0.332193281 15.1812318,0.256998721 15.5617676,0.252441406 Z M15.5617676,1.04541016 C15.1994611,1.04541016 14.9112153,1.20605308 14.6970215,1.52734375 C14.4987783,1.82584785 14.3996582,2.19612409 14.3996582,2.63818359 C14.3996582,3.0802431 14.4987783,3.45051934 14.6970215,3.74902344 C14.9112153,4.07031411 15.2006004,4.23095703 15.5651855,4.23095703 C15.9320494,4.23095703 16.2214345,4.07031411 16.4333496,3.74902344 C16.6315928,3.45051934 16.7307129,3.08707896 16.7307129,2.65869141 C16.7307129,2.19612399 16.6315928,1.81901188 16.4333496,1.52734375 C16.2214345,1.2106104 15.93091,1.04996747 15.5617676,1.04541016 Z" id=".000" fill="#30AD98" fill-rule="nonzero"></path>
                    <rect id="矩形" stroke="#5D6D7E" fill="#FFFFFF" x="0.5" y="10.5" width="20" height="15" rx="1"></rect>
                    <path d="M2.5,8.5 L18.4345703,8.5" id="直线-53" stroke="#808FA1" stroke-linecap="square"></path>
                    <path d="M4.5,6.5 L16.4763184,6.5" id="直线-54" stroke="#D5D9DF" stroke-linecap="square"></path>
                    <g id="编组-2" transform="translate(5.000000, 5.000000)" stroke="#27A2DF" stroke-linecap="round">
                        <polyline id="路径-3" points="0.623535156 9.57495117 5.5 15 10.3586426 9.57495117"></polyline>
                        <path d="M5.5,14 L5.5,-1.50048828" id="直线-2"></path>
                    </g>
                </g>
            </g>
        </g>
    </g>
</svg>