<?xml version="1.0" encoding="UTF-8"?>
<svg width="32px" height="32px" viewBox="0 0 32 32" version="1.1" xmlns="http://www.w3.org/2000/svg" xmlns:xlink="http://www.w3.org/1999/xlink">
    <!-- Generator: Sketch 54 (76480) - https://sketchapp.com -->
    <title>生成地图方案</title>
    <desc>Created with Sketch.</desc>
    <g id="军需图标" stroke="none" stroke-width="1" fill="none" fill-rule="evenodd">
        <g id="画板" transform="translate(-398.000000, -278.000000)">
            <g id="生成地图方案" transform="translate(398.000000, 278.000000)">
                <g transform="translate(3.000000, 2.000000)">
                    <g id="分组">
                        <path d="M24.5,26.5 L24.5,2.5 L5.4757062,2.5 L5.35787435,2.16662304 C5.00773556,1.17598928 4.06807452,0.5 3,0.5 C1.61928813,0.5 0.5,1.61928813 0.5,3 L0.5,24 C0.5,25.3807119 1.61928813,26.5 3,26.5 L24.5,26.5 Z" id="合并形状" stroke="#5D6D7E" fill="#FFFFFF"></path>
                        <g id="编组-20" transform="translate(5.000000, 5.315597)" stroke="#D5D9DF">
                            <path d="M0.5,0.684402939 C0.478068724,5.98606716 3.35307361,8.95462892 9.12501466,9.5900882 C17.7829262,10.5432771 18.0648193,17.6844029 19.0648193,17.6844029" id="路径-2"></path>
                        </g>
                        <path d="M6,24 L5,24 C5,22.8954305 4.1045695,22 3,22 C1.8954305,22 1,22.8954305 1,24 L0,24 C0,22.3431458 1.34314575,21 3,21 C3.76835444,21 4.46924351,21.2888536 5,21.7638935 L5,2 L6,2 L6,24 Z" id="合并形状" fill="#5D6D7E" fill-rule="nonzero"></path>
                    </g>
                    <g id="编组-30" transform="translate(8.000000, 9.000000)" fill="#FFFFFF">
                        <rect id="矩形" stroke="#808FA1" x="0.5" y="0.5" width="17" height="17"></rect>
                        <circle id="椭圆形" stroke="#4EB9A7" cx="6.5" cy="8.5" r="3.5"></circle>
                        <rect id="矩形" stroke="#C49F74" x="7.5" y="3.5" width="7" height="7"></rect>
                        <polygon id="三角形" stroke="#27A2DF" points="10.5 7 15 15 6 15"></polygon>
                    </g>
                </g>
            </g>
        </g>
    </g>
</svg>