<?xml version="1.0" encoding="UTF-8"?>
<svg width="32px" height="32px" viewBox="0 0 32 32" version="1.1" xmlns="http://www.w3.org/2000/svg" xmlns:xlink="http://www.w3.org/1999/xlink">
    <!-- Generator: Sketch 54 (76480) - https://sketchapp.com -->
    <title>32-标准图幅图框</title>
    <desc>Created with Sketch.</desc>
    <g id="10-地图" stroke="none" stroke-width="1" fill="none" fill-rule="evenodd">
        <g id="地图" transform="translate(-279.000000, -88.000000)">
            <g id="10-地图" transform="translate(13.000000, 12.000000)">
                <g id="gallery" transform="translate(0.000000, 76.000000)">
                    <g id="32-标准图幅图框" transform="translate(266.000000, 0.000000)">
                        <g id="分组-92" transform="translate(3.000000, 3.000000)">
                            <rect id="矩形" stroke="#5D6D7E" fill="#FFFFFF" x="0.5" y="0.5" width="25" height="25" rx="1"></rect>
                            <g id="编组">
                                <path d="M10,2 L17,2 L17,3 L10,3 L10,2 Z M10,23 L17,23 L17,24 L10,24 L10,23 Z M2,10 L3,10 L3,17 L2,17 L2,10 Z M23,10 L24,10 L24,17 L23,17 L23,10 Z" id="合并形状" fill="#CDD1D7"></path>
                                <rect id="矩形" fill="#C49F74" x="0" y="4" width="26" height="1"></rect>
                                <rect id="矩形" fill="#C49F74" x="0" y="21" width="26" height="1"></rect>
                                <rect id="矩形" fill="#C49F74" x="4" y="0" width="1" height="26"></rect>
                                <rect id="矩形" fill="#C49F74" x="21" y="0" width="1" height="26"></rect>
                                <path d="M5,11 L11,5" id="直线-23" stroke="#C49F74" stroke-linecap="square"></path>
                                <path d="M5,16 L16,5" id="直线-23" stroke="#C49F74" stroke-linecap="square"></path>
                                <path d="M5,21 L21,5" id="直线-23" stroke="#C49F74" stroke-linecap="square"></path>
                                <path d="M11,21 L21,11" id="直线-23" stroke="#C49F74" stroke-linecap="square"></path>
                                <path d="M15,21 L21,15" id="直线-23" stroke="#C49F74" stroke-linecap="square"></path>
                            </g>
                            <rect id="矩形" stroke="#5D6D7E" x="0.5" y="0.5" width="25" height="25" rx="1"></rect>
                        </g>
                    </g>
                </g>
            </g>
        </g>
    </g>
</svg>