<?xml version="1.0" encoding="UTF-8"?>
<svg width="32px" height="32px" viewBox="0 0 32 32" version="1.1" xmlns="http://www.w3.org/2000/svg" xmlns:xlink="http://www.w3.org/1999/xlink">
    <!-- Generator: Sketch 54 (76480) - https://sketchapp.com -->
    <title>影像专题图切图</title>
    <desc>Created with Sketch.</desc>
    <g id="军需图标" stroke="none" stroke-width="1" fill="none" fill-rule="evenodd">
        <g id="画板" transform="translate(-230.000000, -320.000000)">
            <g id="影像专题图切图" transform="translate(230.000000, 320.000000)">
                <g transform="translate(3.000000, 3.000000)">
                    <g id="编组-32">
                        <rect id="矩形" stroke="#5D6D7E" fill="#FBF4E4" x="0.5" y="0.5" width="20" height="20" rx="1"></rect>
                        <path d="M11,1 L15,1 L15,5 L11,5 L11,1 Z M6,6 L10,6 L10,20 L6,20 L6,6 Z M1,11 L5,11 L5,15 L1,15 L1,11 Z" id="形状结合" fill="#DDEEDB"></path>
                        <path d="M16,11 L20,11 L20,20 L16,20 L16,11 Z M11,16 L15,16 L15,20 L11,20 L11,16 Z" id="形状结合" fill="#A5D0E8"></path>
                        <path d="M15.75,5.5 L15.5,5.5 L15.5,5.25 L15.5,5.5 L10.5,5.5 L10.5,1 L11,1.5 L10,1.5 L10.5,1 L10.5,5.5 L5.5,5.5 L5.5,5.25 L5.5,5.5 L5.25,5.5 L5.5,5.5 L5.5,10.5 L1,10.5 L1.5,10 L1.5,11 L1,10.5 L5.5,10.5 L5.5,15.5 L5.25,15.5 L5.5,15.5 L5.5,20 L5,19.5 L6,19.5 L5.5,20 L5.5,15.5 L10.5,15.5 L10.5,20 L10,19.5 L11,19.5 L10.5,20 L10.5,15.5 L15.5,15.5 L15.5,15.75 L15.5,15.5 L20,15.5 L19.5,16 L19.5,15 L20,15.5 L15.5,15.5 L15.5,10.5 L20,10.5 L19.5,11 L19.5,10 L20,10.5 L15.5,10.5 L15.5,5.5 L15.75,5.5 Z M15.5,10.5 L15.5,15.5 L10.5,15.5 L10.5,10.5 L15.5,10.5 Z M10.5,10.5 L10.5,15.5 L5.5,15.5 L5.5,10.5 L10.5,10.5 Z M10.5,10.5 L5.5,10.5 L5.5,5.5 L10.5,5.5 L10.5,10.5 Z M10.5,10.5 L10.5,5.5 L15.5,5.5 L15.5,10.5 L10.5,10.5 Z" id="形状结合" stroke="#5D6D7E"></path>
                    </g>
                    <rect id="矩形" fill="#FFFFFF" x="12" y="12" width="9" height="9"></rect>
                    <g id="编组-35" transform="translate(13.000000, 13.000000)">
                        <rect id="矩形" fill="#FFFFFF" x="0" y="0" width="13" height="13" rx="1"></rect>
                        <path d="M12.5,4 C10.1666667,3.53320312 8.33333333,4.24983724 7,6.14990234 C6.33741077,7.09412434 8.6182982,6.53109895 9.60205078,7.5 C10.2659576,8.15388393 11.3986073,9.65388393 13,12 L12.5,4 Z" id="路径-41" fill="#FBF4E4"></path>
                        <path d="M0.944335938,0.983398437 C0.711560286,4.15474252 2.50111806,5.9832316 6.31300925,6.46886569 C10.1249004,6.95449978 12.0885979,8.79821122 12.2041016,12" id="路径-39" stroke="#CDD1D7"></path>
                        <path d="M7,6.5 C8.12646071,4.16666667 9.86116123,3.16666667 12.2041016,3.5" id="路径-40" stroke="#CDD1D7"></path>
                        <rect id="矩形" stroke="#5D6D7E" x="0.5" y="0.5" width="12" height="12" rx="1"></rect>
                    </g>
                </g>
            </g>
        </g>
    </g>
</svg>