<?xml version="1.0" encoding="UTF-8"?>
<svg width="32px" height="32px" viewBox="0 0 32 32" version="1.1" xmlns="http://www.w3.org/2000/svg" xmlns:xlink="http://www.w3.org/1999/xlink">
    <!-- Generator: Sketch 54 (76480) - https://sketchapp.com -->
    <title>军图插件注册</title>
    <desc>Created with Sketch.</desc>
    <g id="军需图标" stroke="none" stroke-width="1" fill="none" fill-rule="evenodd">
        <g id="画板" transform="translate(-314.000000, -320.000000)">
            <g id="军图插件注册" transform="translate(314.000000, 320.000000)">
                <g transform="translate(3.000000, 3.000000)">
                    <rect id="矩形" fill="#FFFFFF" x="0" y="0" width="24" height="24" rx="1"></rect>
                    <polygon id="无动画" fill="#808FA1" points="6.5 7.52786405 4.33688104 9 5.01286556 6.46737621 3 4.67376208 5.68130608 4.58065045 6.5 2 7.31869392 4.58065045 10 4.67376208 7.98713444 6.46737621 8.66311896 9"></polygon>
                    <path d="M4.5,12.5 C4.5,11.3954305 5.3954305,10.5 6.5,10.5 C7.6045695,10.5 8.5,11.3954305 8.5,12.5 L12.5,12.5 L12.5,8.54128841 L12.9005339,8.45998431 C13.8247388,8.27238061 14.5,7.45540363 14.5,6.5 C14.5,5.54459637 13.8247388,4.72761939 12.9005339,4.54001569 L12.5,4.45871159 L12.5,0.5 L1,0.5 C0.723857625,0.5 0.5,0.723857625 0.5,1 L0.5,12.5 L4.5,12.5 Z" id="形状结合" stroke="#808FA1"></path>
                    <path d="M24,20 L23,20 L23,1 L1,1 L1,23 L11,23 L11,24 L1,24 C0.44771525,24 6.76353751e-17,23.5522847 0,23 L0,1 C-6.76353751e-17,0.44771525 0.44771525,1.01453063e-16 1,0 L23,0 C23.5522847,-1.01453063e-16 24,0.44771525 24,1 L24,20 Z M22,24 L16,24 L16,23 L22,23 L22,24 Z" id="形状结合" fill="#5D6D7E" fill-rule="nonzero"></path>
                    <circle id="椭圆形" stroke="#27A2DF" cx="18" cy="17" r="3.5"></circle>
                    <path d="M12,25.5029297 C12.9077992,22.212972 14.9666371,20.5679932 18.1765137,20.5679932 C21.3863902,20.5679932 23.6792369,22.212972 25.0550537,25.5029297" id="路径-42" stroke="#27A2DF" stroke-linecap="round"></path>
                </g>
            </g>
        </g>
    </g>
</svg>